<mxfile host="app.diagrams.net" modified="2021-12-28T23:04:42.238Z" agent="5.0 (Windows NT 6.1; Win64; x64) AppleWebKit/537.36 (KHTML, like Gecko) Chrome/93.0.4577.63 Safari/537.36" etag="vwi1uEjFV8JVoz-0vBGn" version="16.1.0" type="github" pages="3">
  <diagram name="Page-1" id="e7e014a7-5840-1c2e-5031-d8a46d1fe8dd">
    <mxGraphModel dx="1422" dy="794" grid="1" gridSize="10" guides="1" tooltips="1" connect="1" arrows="1" fold="1" page="1" pageScale="1" pageWidth="1169" pageHeight="826" background="none" math="0" shadow="0">
      <root>
        <mxCell id="0" />
        <mxCell id="1" parent="0" />
        <mxCell id="2" value="Thread 1" style="swimlane;whiteSpace=wrap" parent="1" vertex="1">
          <mxGeometry x="164.5" y="128" width="280" height="570" as="geometry" />
        </mxCell>
        <mxCell id="5" value="" style="ellipse;shape=startState;fillColor=#000000;strokeColor=#ff0000;" parent="2" vertex="1">
          <mxGeometry x="100" y="40" width="30" height="30" as="geometry" />
        </mxCell>
        <mxCell id="6" value="" style="edgeStyle=elbowEdgeStyle;elbow=horizontal;verticalAlign=bottom;endArrow=open;endSize=8;strokeColor=#FF0000;endFill=1;rounded=0" parent="2" source="5" target="7" edge="1">
          <mxGeometry x="100" y="40" as="geometry">
            <mxPoint x="115" y="110" as="targetPoint" />
          </mxGeometry>
        </mxCell>
        <mxCell id="7" value="idle" style="" parent="2" vertex="1">
          <mxGeometry x="60" y="110" width="110" height="50" as="geometry" />
        </mxCell>
        <mxCell id="8" value="user action" style="" parent="2" vertex="1">
          <mxGeometry x="60" y="220" width="110" height="50" as="geometry" />
        </mxCell>
        <mxCell id="9" value="" style="endArrow=open;strokeColor=#FF0000;endFill=1;rounded=0" parent="2" source="7" target="8" edge="1">
          <mxGeometry relative="1" as="geometry" />
        </mxCell>
        <mxCell id="10" value="post command" style="" parent="2" vertex="1">
          <mxGeometry x="60" y="412" width="110" height="50" as="geometry" />
        </mxCell>
        <mxCell id="11" value="" style="endArrow=open;strokeColor=#FF0000;endFill=1;rounded=0;exitX=0;exitY=0;exitDx=0;exitDy=0;" parent="2" source="wqqaSzbxY1rW3Zw78La_-42" target="10" edge="1">
          <mxGeometry relative="1" as="geometry">
            <mxPoint x="115.5" y="337" as="sourcePoint" />
            <mxPoint x="115.5" y="422" as="targetPoint" />
          </mxGeometry>
        </mxCell>
        <mxCell id="12" value="" style="edgeStyle=elbowEdgeStyle;elbow=horizontal;strokeColor=#FF0000;endArrow=open;endFill=1;rounded=0" parent="2" source="10" target="7" edge="1">
          <mxGeometry width="100" height="100" relative="1" as="geometry">
            <mxPoint x="160" y="290" as="sourcePoint" />
            <mxPoint x="260" y="190" as="targetPoint" />
            <Array as="points">
              <mxPoint x="30" y="250" />
            </Array>
          </mxGeometry>
        </mxCell>
        <mxCell id="wqqaSzbxY1rW3Zw78La_-42" value="user action" style="" parent="2" vertex="1">
          <mxGeometry x="60" y="312" width="110" height="50" as="geometry" />
        </mxCell>
        <mxCell id="wqqaSzbxY1rW3Zw78La_-45" value="" style="endArrow=open;strokeColor=#FF0000;endFill=1;rounded=0;" parent="2" target="wqqaSzbxY1rW3Zw78La_-42" edge="1">
          <mxGeometry relative="1" as="geometry">
            <mxPoint x="114.5" y="242" as="sourcePoint" />
            <mxPoint x="114.5" y="312" as="targetPoint" />
          </mxGeometry>
        </mxCell>
        <mxCell id="3" value="Thread 2" style="swimlane;whiteSpace=wrap" parent="1" vertex="1">
          <mxGeometry x="444.5" y="128" width="280" height="570" as="geometry">
            <mxRectangle x="444.5" y="128" width="80" height="23" as="alternateBounds" />
          </mxGeometry>
        </mxCell>
        <mxCell id="13" value="" style="ellipse;shape=startState;fillColor=#000000;strokeColor=#ff0000;" parent="3" vertex="1">
          <mxGeometry x="60" y="40" width="30" height="30" as="geometry" />
        </mxCell>
        <mxCell id="14" value="" style="edgeStyle=elbowEdgeStyle;elbow=horizontal;verticalAlign=bottom;endArrow=open;endSize=8;strokeColor=#FF0000;endFill=1;rounded=0" parent="3" source="13" target="15" edge="1">
          <mxGeometry x="40" y="20" as="geometry">
            <mxPoint x="55" y="90" as="targetPoint" />
          </mxGeometry>
        </mxCell>
        <mxCell id="15" value="idle" style="" parent="3" vertex="1">
          <mxGeometry x="20" y="110" width="110" height="50" as="geometry" />
        </mxCell>
        <mxCell id="16" value="check for &#xa;new commands" style="" parent="3" vertex="1">
          <mxGeometry x="20" y="220" width="110" height="50" as="geometry" />
        </mxCell>
        <mxCell id="17" value="" style="endArrow=open;strokeColor=#FF0000;endFill=1;rounded=0" parent="3" source="15" target="16" edge="1">
          <mxGeometry relative="1" as="geometry" />
        </mxCell>
        <mxCell id="18" value="command queue" style="" parent="3" vertex="1">
          <mxGeometry x="20" y="325" width="110" height="50" as="geometry" />
        </mxCell>
        <mxCell id="19" value="" style="endArrow=open;strokeColor=#FF0000;endFill=1;rounded=0" parent="3" source="16" target="18" edge="1">
          <mxGeometry relative="1" as="geometry" />
        </mxCell>
        <mxCell id="21" value="queue empty" style="rhombus;fillColor=#ffffc0;strokeColor=#ff0000;" parent="3" vertex="1">
          <mxGeometry x="150" y="225" width="80" height="40" as="geometry" />
        </mxCell>
        <mxCell id="22" value="yes" style="edgeStyle=elbowEdgeStyle;elbow=horizontal;align=left;verticalAlign=bottom;endArrow=open;endSize=8;strokeColor=#FF0000;exitX=0.5;exitY=0;endFill=1;rounded=0;entryX=0.75;entryY=0.5;entryPerimeter=0" parent="3" source="21" target="25" edge="1">
          <mxGeometry x="-1" relative="1" as="geometry">
            <mxPoint x="160" y="150" as="targetPoint" />
            <Array as="points">
              <mxPoint x="190" y="180" />
            </Array>
          </mxGeometry>
        </mxCell>
        <mxCell id="23" value="no" style="edgeStyle=elbowEdgeStyle;elbow=horizontal;align=left;verticalAlign=top;endArrow=open;endSize=8;strokeColor=#FF0000;endFill=1;rounded=0" parent="3" source="21" target="30" edge="1">
          <mxGeometry x="-1" relative="1" as="geometry">
            <mxPoint x="190" y="305" as="targetPoint" />
          </mxGeometry>
        </mxCell>
        <mxCell id="24" value="" style="endArrow=open;strokeColor=#FF0000;endFill=1;rounded=0" parent="3" source="16" target="21" edge="1">
          <mxGeometry relative="1" as="geometry" />
        </mxCell>
        <mxCell id="25" value="" style="shape=line;strokeWidth=6;strokeColor=#ff0000;rotation=90" parent="3" vertex="1">
          <mxGeometry x="130" y="127.5" width="50" height="15" as="geometry" />
        </mxCell>
        <mxCell id="26" value="" style="edgeStyle=elbowEdgeStyle;elbow=horizontal;verticalAlign=bottom;endArrow=open;endSize=8;strokeColor=#FF0000;endFill=1;rounded=0" parent="3" source="25" target="15" edge="1">
          <mxGeometry x="130" y="90" as="geometry">
            <mxPoint x="230" y="140" as="targetPoint" />
          </mxGeometry>
        </mxCell>
        <mxCell id="30" value="dispatch&#xa;command&#xa;worker thread" style="" parent="3" vertex="1">
          <mxGeometry x="140" y="325" width="110" height="50" as="geometry" />
        </mxCell>
        <mxCell id="31" value="critical&#xa;section" style="shape=note;whiteSpace=wrap;size=17" parent="3" vertex="1">
          <mxGeometry x="105" y="490" width="100" height="50" as="geometry" />
        </mxCell>
        <mxCell id="32" value="" style="endArrow=none;strokeColor=#FF0000;endFill=0;rounded=0;dashed=1" parent="3" source="18" target="31" edge="1">
          <mxGeometry relative="1" as="geometry" />
        </mxCell>
        <mxCell id="34" value="" style="whiteSpace=wrap;strokeColor=#FF0000;fillColor=#FF0000" parent="3" vertex="1">
          <mxGeometry x="245" y="395" width="5" height="45" as="geometry" />
        </mxCell>
        <mxCell id="41" value="" style="edgeStyle=elbowEdgeStyle;elbow=horizontal;entryX=0;entryY=0.5;strokeColor=#FF0000;endArrow=open;endFill=1;rounded=0" parent="3" source="30" target="34" edge="1">
          <mxGeometry width="100" height="100" relative="1" as="geometry">
            <mxPoint x="60" y="480" as="sourcePoint" />
            <mxPoint x="160" y="380" as="targetPoint" />
            <Array as="points">
              <mxPoint x="195" y="400" />
            </Array>
          </mxGeometry>
        </mxCell>
        <mxCell id="4" value="Thread 3" style="swimlane;whiteSpace=wrap" parent="1" vertex="1">
          <mxGeometry x="724.5" y="128" width="280" height="570" as="geometry" />
        </mxCell>
        <mxCell id="33" value="process&#xa;command" style="" parent="4" vertex="1">
          <mxGeometry x="90" y="405" width="110" height="50" as="geometry" />
        </mxCell>
        <mxCell id="35" value="" style="edgeStyle=elbowEdgeStyle;elbow=horizontal;strokeColor=#FF0000;endArrow=open;endFill=1;rounded=0;entryX=0.25;entryY=0.5;entryPerimeter=0" parent="4" target="25" edge="1">
          <mxGeometry width="100" height="100" relative="1" as="geometry">
            <mxPoint x="-30" y="410" as="sourcePoint" />
            <mxPoint x="-120" y="120" as="targetPoint" />
            <Array as="points">
              <mxPoint x="-10" y="135" />
            </Array>
          </mxGeometry>
        </mxCell>
        <mxCell id="37" value="" style="edgeStyle=none;strokeColor=#FF0000;endArrow=open;endFill=1;rounded=0" parent="4" target="33" edge="1">
          <mxGeometry width="100" height="100" relative="1" as="geometry">
            <mxPoint x="-30" y="429.5" as="sourcePoint" />
            <mxPoint x="90" y="429.5" as="targetPoint" />
          </mxGeometry>
        </mxCell>
        <mxCell id="38" value="" style="ellipse;shape=endState;fillColor=#000000;strokeColor=#ff0000" parent="4" vertex="1">
          <mxGeometry x="130" y="500" width="30" height="30" as="geometry" />
        </mxCell>
        <mxCell id="39" value="" style="endArrow=open;strokeColor=#FF0000;endFill=1;rounded=0" parent="4" source="33" target="38" edge="1">
          <mxGeometry relative="1" as="geometry" />
        </mxCell>
        <mxCell id="20" value="" style="endArrow=open;strokeColor=#FF0000;endFill=1;rounded=0" parent="1" source="10" target="18" edge="1">
          <mxGeometry relative="1" as="geometry" />
        </mxCell>
        <mxCell id="wqqaSzbxY1rW3Zw78La_-41" value="手术流程管理" style="rounded=1;whiteSpace=wrap;html=1;fillColor=#fff2cc;strokeColor=#d6b656;fontColor=#7A5E87;fontStyle=1;fontSize=16;" parent="1" vertex="1">
          <mxGeometry x="30" y="20" width="120" height="60" as="geometry" />
        </mxCell>
      </root>
    </mxGraphModel>
  </diagram>
  <diagram id="8ZNkPNpzcMx2T0sxvTHA" name="Page-2">
    <mxGraphModel dx="1422" dy="794" grid="1" gridSize="10" guides="1" tooltips="1" connect="1" arrows="1" fold="1" page="1" pageScale="1" pageWidth="827" pageHeight="1169" math="0" shadow="0">
      <root>
        <mxCell id="Koh-GuARSo2pHLwbyBPv-0" />
        <mxCell id="Koh-GuARSo2pHLwbyBPv-1" parent="Koh-GuARSo2pHLwbyBPv-0" />
        <mxCell id="PTWqVlbE14Y938z7VgFS-58" value="" style="rounded=1;whiteSpace=wrap;html=1;fontSize=10;fillColor=#b1ddf0;strokeColor=#10739e;opacity=50;" parent="Koh-GuARSo2pHLwbyBPv-1" vertex="1">
          <mxGeometry x="22" y="543" width="1190" height="267" as="geometry" />
        </mxCell>
        <mxCell id="STwrOhRklooQAh6NSAL1-0" value="inPut" style="swimlane;whiteSpace=wrap" parent="Koh-GuARSo2pHLwbyBPv-1" vertex="1">
          <mxGeometry x="20" y="128" width="1190" height="1750" as="geometry" />
        </mxCell>
        <mxCell id="PTWqVlbE14Y938z7VgFS-135" value="" style="rounded=1;whiteSpace=wrap;html=1;fontSize=10;fillColor=#d0cee2;strokeColor=#56517e;opacity=50;" parent="STwrOhRklooQAh6NSAL1-0" vertex="1">
          <mxGeometry y="972" width="1190" height="778" as="geometry" />
        </mxCell>
        <mxCell id="PTWqVlbE14Y938z7VgFS-57" value="" style="rounded=1;whiteSpace=wrap;html=1;fontSize=10;fillColor=#fad9d5;strokeColor=#ae4132;opacity=50;" parent="STwrOhRklooQAh6NSAL1-0" vertex="1">
          <mxGeometry y="22" width="1190" height="388" as="geometry" />
        </mxCell>
        <mxCell id="STwrOhRklooQAh6NSAL1-39" value="授权知情同意书" style="shape=document;whiteSpace=wrap;html=1;boundedLbl=1;" parent="STwrOhRklooQAh6NSAL1-0" vertex="1">
          <mxGeometry x="15.5" y="52" width="104.5" height="62" as="geometry" />
        </mxCell>
        <mxCell id="STwrOhRklooQAh6NSAL1-40" value="手术知情同意书" style="shape=document;whiteSpace=wrap;html=1;boundedLbl=1;" parent="STwrOhRklooQAh6NSAL1-0" vertex="1">
          <mxGeometry x="120" y="52" width="104.5" height="62" as="geometry" />
        </mxCell>
        <mxCell id="STwrOhRklooQAh6NSAL1-41" value="医疗材料收费知情同意书" style="shape=document;whiteSpace=wrap;html=1;boundedLbl=1;" parent="STwrOhRklooQAh6NSAL1-0" vertex="1">
          <mxGeometry x="15.5" y="114" width="104.5" height="62" as="geometry" />
        </mxCell>
        <mxCell id="STwrOhRklooQAh6NSAL1-42" value="特殊用药知情同意书" style="shape=document;whiteSpace=wrap;html=1;boundedLbl=1;fillColor=#fad7ac;strokeColor=#b46504;" parent="STwrOhRklooQAh6NSAL1-0" vertex="1">
          <mxGeometry x="120" y="114" width="104.5" height="62" as="geometry" />
        </mxCell>
        <mxCell id="STwrOhRklooQAh6NSAL1-43" value="手术安全核查表" style="shape=document;whiteSpace=wrap;html=1;boundedLbl=1;" parent="STwrOhRklooQAh6NSAL1-0" vertex="1">
          <mxGeometry x="15.5" y="176" width="104.5" height="62" as="geometry" />
        </mxCell>
        <mxCell id="STwrOhRklooQAh6NSAL1-44" value="手术风险评估表" style="shape=document;whiteSpace=wrap;html=1;boundedLbl=1;" parent="STwrOhRklooQAh6NSAL1-0" vertex="1">
          <mxGeometry x="120" y="176" width="104.5" height="62" as="geometry" />
        </mxCell>
        <mxCell id="STwrOhRklooQAh6NSAL1-45" value="新冠病毒筛查表" style="shape=document;whiteSpace=wrap;html=1;boundedLbl=1;" parent="STwrOhRklooQAh6NSAL1-0" vertex="1">
          <mxGeometry x="15.5" y="254" width="104.5" height="62" as="geometry" />
        </mxCell>
        <mxCell id="STwrOhRklooQAh6NSAL1-46" value="术前小结" style="shape=document;whiteSpace=wrap;html=1;boundedLbl=1;" parent="STwrOhRklooQAh6NSAL1-0" vertex="1">
          <mxGeometry x="15.5" y="332" width="104.5" height="62" as="geometry" />
        </mxCell>
        <mxCell id="PTWqVlbE14Y938z7VgFS-0" value="手术标记" style="ellipse;whiteSpace=wrap;html=1;fillColor=#fad7ac;strokeColor=#b46504;" parent="STwrOhRklooQAh6NSAL1-0" vertex="1">
          <mxGeometry x="120" y="332" width="48.43" height="52" as="geometry" />
        </mxCell>
        <mxCell id="PTWqVlbE14Y938z7VgFS-1" value="授权知情同意书" style="shape=document;whiteSpace=wrap;html=1;boundedLbl=1;" parent="STwrOhRklooQAh6NSAL1-0" vertex="1">
          <mxGeometry x="15.5" y="52" width="104.5" height="62" as="geometry" />
        </mxCell>
        <mxCell id="PTWqVlbE14Y938z7VgFS-2" value="手术知情同意书" style="shape=document;whiteSpace=wrap;html=1;boundedLbl=1;" parent="STwrOhRklooQAh6NSAL1-0" vertex="1">
          <mxGeometry x="120" y="52" width="104.5" height="62" as="geometry" />
        </mxCell>
        <mxCell id="PTWqVlbE14Y938z7VgFS-3" value="授权知情同意书" style="shape=document;whiteSpace=wrap;html=1;boundedLbl=1;" parent="STwrOhRklooQAh6NSAL1-0" vertex="1">
          <mxGeometry x="15.5" y="52" width="104.5" height="62" as="geometry" />
        </mxCell>
        <mxCell id="PTWqVlbE14Y938z7VgFS-4" value="手术知情同意书" style="shape=document;whiteSpace=wrap;html=1;boundedLbl=1;" parent="STwrOhRklooQAh6NSAL1-0" vertex="1">
          <mxGeometry x="120" y="52" width="104.5" height="62" as="geometry" />
        </mxCell>
        <mxCell id="PTWqVlbE14Y938z7VgFS-5" value="医疗材料收费知情同意书" style="shape=document;whiteSpace=wrap;html=1;boundedLbl=1;" parent="STwrOhRklooQAh6NSAL1-0" vertex="1">
          <mxGeometry x="15.5" y="114" width="104.5" height="62" as="geometry" />
        </mxCell>
        <mxCell id="PTWqVlbE14Y938z7VgFS-6" value="授权知情同意书" style="shape=document;whiteSpace=wrap;html=1;boundedLbl=1;" parent="STwrOhRklooQAh6NSAL1-0" vertex="1">
          <mxGeometry x="15.5" y="52" width="104.5" height="62" as="geometry" />
        </mxCell>
        <mxCell id="PTWqVlbE14Y938z7VgFS-7" value="手术知情同意书" style="shape=document;whiteSpace=wrap;html=1;boundedLbl=1;" parent="STwrOhRklooQAh6NSAL1-0" vertex="1">
          <mxGeometry x="120" y="52" width="104.5" height="62" as="geometry" />
        </mxCell>
        <mxCell id="PTWqVlbE14Y938z7VgFS-8" value="医疗材料收费知情同意书" style="shape=document;whiteSpace=wrap;html=1;boundedLbl=1;" parent="STwrOhRklooQAh6NSAL1-0" vertex="1">
          <mxGeometry x="15.5" y="114" width="104.5" height="62" as="geometry" />
        </mxCell>
        <mxCell id="PTWqVlbE14Y938z7VgFS-9" value="手术风险评估表" style="shape=document;whiteSpace=wrap;html=1;boundedLbl=1;" parent="STwrOhRklooQAh6NSAL1-0" vertex="1">
          <mxGeometry x="120" y="176" width="104.5" height="62" as="geometry" />
        </mxCell>
        <mxCell id="PTWqVlbE14Y938z7VgFS-10" value="授权知情同意书" style="shape=document;whiteSpace=wrap;html=1;boundedLbl=1;" parent="STwrOhRklooQAh6NSAL1-0" vertex="1">
          <mxGeometry x="15.5" y="52" width="104.5" height="62" as="geometry" />
        </mxCell>
        <mxCell id="PTWqVlbE14Y938z7VgFS-11" value="手术知情同意书" style="shape=document;whiteSpace=wrap;html=1;boundedLbl=1;" parent="STwrOhRklooQAh6NSAL1-0" vertex="1">
          <mxGeometry x="120" y="52" width="104.5" height="62" as="geometry" />
        </mxCell>
        <mxCell id="PTWqVlbE14Y938z7VgFS-12" value="医疗材料收费知情同意书" style="shape=document;whiteSpace=wrap;html=1;boundedLbl=1;" parent="STwrOhRklooQAh6NSAL1-0" vertex="1">
          <mxGeometry x="15.5" y="114" width="104.5" height="62" as="geometry" />
        </mxCell>
        <mxCell id="PTWqVlbE14Y938z7VgFS-13" value="手术风险评估表" style="shape=document;whiteSpace=wrap;html=1;boundedLbl=1;" parent="STwrOhRklooQAh6NSAL1-0" vertex="1">
          <mxGeometry x="120" y="176" width="104.5" height="62" as="geometry" />
        </mxCell>
        <mxCell id="PTWqVlbE14Y938z7VgFS-14" value="手术安全核查表" style="shape=document;whiteSpace=wrap;html=1;boundedLbl=1;" parent="STwrOhRklooQAh6NSAL1-0" vertex="1">
          <mxGeometry x="15.5" y="176" width="104.5" height="62" as="geometry" />
        </mxCell>
        <mxCell id="PTWqVlbE14Y938z7VgFS-15" value="授权知情同意书" style="shape=document;whiteSpace=wrap;html=1;boundedLbl=1;fillColor=#fad7ac;strokeColor=#b46504;" parent="STwrOhRklooQAh6NSAL1-0" vertex="1">
          <mxGeometry x="15.5" y="52" width="104.5" height="62" as="geometry" />
        </mxCell>
        <mxCell id="PTWqVlbE14Y938z7VgFS-16" value="手术知情同意书" style="shape=document;whiteSpace=wrap;html=1;boundedLbl=1;fillColor=#fad7ac;strokeColor=#b46504;" parent="STwrOhRklooQAh6NSAL1-0" vertex="1">
          <mxGeometry x="120" y="52" width="104.5" height="62" as="geometry" />
        </mxCell>
        <mxCell id="PTWqVlbE14Y938z7VgFS-17" value="医疗材料收费知情同意书" style="shape=document;whiteSpace=wrap;html=1;boundedLbl=1;fillColor=#fad7ac;strokeColor=#b46504;" parent="STwrOhRklooQAh6NSAL1-0" vertex="1">
          <mxGeometry x="15.5" y="114" width="104.5" height="62" as="geometry" />
        </mxCell>
        <mxCell id="PTWqVlbE14Y938z7VgFS-18" value="手术风险评估表" style="shape=document;whiteSpace=wrap;html=1;boundedLbl=1;fillColor=#fad7ac;strokeColor=#b46504;" parent="STwrOhRklooQAh6NSAL1-0" vertex="1">
          <mxGeometry x="120" y="176" width="104.5" height="62" as="geometry" />
        </mxCell>
        <mxCell id="PTWqVlbE14Y938z7VgFS-19" value="手术安全核查表" style="shape=document;whiteSpace=wrap;html=1;boundedLbl=1;fillColor=#fad7ac;strokeColor=#b46504;" parent="STwrOhRklooQAh6NSAL1-0" vertex="1">
          <mxGeometry x="15.5" y="176" width="104.5" height="62" as="geometry" />
        </mxCell>
        <mxCell id="PTWqVlbE14Y938z7VgFS-20" value="新冠病毒筛查表" style="shape=document;whiteSpace=wrap;html=1;boundedLbl=1;fillColor=#fad7ac;strokeColor=#b46504;" parent="STwrOhRklooQAh6NSAL1-0" vertex="1">
          <mxGeometry x="15.5" y="254" width="104.5" height="62" as="geometry" />
        </mxCell>
        <mxCell id="PTWqVlbE14Y938z7VgFS-21" value="术前小结" style="shape=document;whiteSpace=wrap;html=1;boundedLbl=1;fillColor=#fad7ac;strokeColor=#b46504;" parent="STwrOhRklooQAh6NSAL1-0" vertex="1">
          <mxGeometry x="15.5" y="332" width="104.5" height="62" as="geometry" />
        </mxCell>
        <mxCell id="PTWqVlbE14Y938z7VgFS-27" value="术前文本综合信息表" style="verticalLabelPosition=bottom;html=1;verticalAlign=top;align=center;strokeColor=none;fillColor=#00BEF2;shape=mxgraph.azure.storage;pointerEvents=1;" parent="STwrOhRklooQAh6NSAL1-0" vertex="1">
          <mxGeometry x="280" y="142" width="120" height="84" as="geometry" />
        </mxCell>
        <mxCell id="PTWqVlbE14Y938z7VgFS-28" value="" style="shape=curlyBracket;whiteSpace=wrap;html=1;rounded=1;flipH=1;" parent="STwrOhRklooQAh6NSAL1-0" vertex="1">
          <mxGeometry x="230" y="85" width="20" height="265" as="geometry" />
        </mxCell>
        <mxCell id="PTWqVlbE14Y938z7VgFS-62" value="术前护理宣教" style="" parent="STwrOhRklooQAh6NSAL1-0" vertex="1">
          <mxGeometry x="592.5" y="292" width="110" height="32" as="geometry" />
        </mxCell>
        <mxCell id="STwrOhRklooQAh6NSAL1-17" value="患者术前准备" style="" parent="STwrOhRklooQAh6NSAL1-0" vertex="1">
          <mxGeometry x="592.5" y="370" width="110" height="30" as="geometry" />
        </mxCell>
        <mxCell id="STwrOhRklooQAh6NSAL1-18" value="" style="endArrow=open;strokeColor=#FF0000;endFill=1;rounded=0;exitX=0.485;exitY=0.988;exitDx=0;exitDy=0;exitPerimeter=0;entryX=0.486;entryY=0;entryDx=0;entryDy=0;entryPerimeter=0;" parent="STwrOhRklooQAh6NSAL1-0" source="PTWqVlbE14Y938z7VgFS-62" target="STwrOhRklooQAh6NSAL1-17" edge="1">
          <mxGeometry relative="1" as="geometry">
            <mxPoint x="647" y="332" as="targetPoint" />
          </mxGeometry>
        </mxCell>
        <mxCell id="PTWqVlbE14Y938z7VgFS-54" value="数据中心" style="ellipse;shape=cloud;whiteSpace=wrap;html=1;fontSize=10;fillColor=rgb(255, 255, 255);strokeColor=rgb(0, 0, 0);fontColor=rgb(0, 0, 0);rounded=1;" parent="STwrOhRklooQAh6NSAL1-0" vertex="1">
          <mxGeometry x="760" y="236" width="120" height="80" as="geometry" />
        </mxCell>
        <mxCell id="PTWqVlbE14Y938z7VgFS-46" value="患者术前核心信息图" style="swimlane;fontStyle=0;childLayout=stackLayout;horizontal=1;startSize=30;horizontalStack=0;resizeParent=1;resizeParentMax=0;resizeLast=0;collapsible=1;marginBottom=0;fontSize=10;" parent="STwrOhRklooQAh6NSAL1-0" vertex="1">
          <mxGeometry x="980" y="216" width="140" height="120" as="geometry" />
        </mxCell>
        <mxCell id="PTWqVlbE14Y938z7VgFS-47" value="Item 1" style="text;strokeColor=none;fillColor=none;align=left;verticalAlign=middle;spacingLeft=4;spacingRight=4;overflow=hidden;points=[[0,0.5],[1,0.5]];portConstraint=eastwest;rotatable=0;fontSize=10;" parent="PTWqVlbE14Y938z7VgFS-46" vertex="1">
          <mxGeometry y="30" width="140" height="30" as="geometry" />
        </mxCell>
        <mxCell id="PTWqVlbE14Y938z7VgFS-48" value="Item 2" style="text;strokeColor=none;fillColor=none;align=left;verticalAlign=middle;spacingLeft=4;spacingRight=4;overflow=hidden;points=[[0,0.5],[1,0.5]];portConstraint=eastwest;rotatable=0;fontSize=10;" parent="PTWqVlbE14Y938z7VgFS-46" vertex="1">
          <mxGeometry y="60" width="140" height="30" as="geometry" />
        </mxCell>
        <mxCell id="PTWqVlbE14Y938z7VgFS-49" value="每日24点自动创建实时更新" style="text;strokeColor=none;fillColor=none;align=left;verticalAlign=middle;spacingLeft=4;spacingRight=4;overflow=hidden;points=[[0,0.5],[1,0.5]];portConstraint=eastwest;rotatable=0;fontSize=10;" parent="PTWqVlbE14Y938z7VgFS-46" vertex="1">
          <mxGeometry y="90" width="140" height="30" as="geometry" />
        </mxCell>
        <mxCell id="PTWqVlbE14Y938z7VgFS-56" value="" style="endArrow=classic;html=1;rounded=0;fontSize=10;entryX=0;entryY=0.033;entryDx=0;entryDy=0;entryPerimeter=0;exitX=0.875;exitY=0.5;exitDx=0;exitDy=0;exitPerimeter=0;" parent="STwrOhRklooQAh6NSAL1-0" source="PTWqVlbE14Y938z7VgFS-54" target="PTWqVlbE14Y938z7VgFS-48" edge="1">
          <mxGeometry width="50" height="50" relative="1" as="geometry">
            <mxPoint x="800" y="342" as="sourcePoint" />
            <mxPoint x="850" y="292" as="targetPoint" />
          </mxGeometry>
        </mxCell>
        <mxCell id="PTWqVlbE14Y938z7VgFS-73" value="运输方式" style="shape=hexagon;perimeter=hexagonPerimeter2;whiteSpace=wrap;html=1;fixedSize=1;rounded=1;fontSize=10;opacity=50;fillColor=#fad7ac;strokeColor=#b46504;" parent="STwrOhRklooQAh6NSAL1-0" vertex="1">
          <mxGeometry x="168.43" y="337" width="80" height="42" as="geometry" />
        </mxCell>
        <mxCell id="PTWqVlbE14Y938z7VgFS-86" value="" style="rounded=1;whiteSpace=wrap;html=1;fontSize=10;fillColor=#b0e3e6;strokeColor=#0e8088;opacity=50;" parent="STwrOhRklooQAh6NSAL1-0" vertex="1">
          <mxGeometry y="692" width="1190" height="267" as="geometry" />
        </mxCell>
        <mxCell id="PTWqVlbE14Y938z7VgFS-87" value="接待室患者信息核对" style="" parent="STwrOhRklooQAh6NSAL1-0" vertex="1">
          <mxGeometry x="585" y="712" width="125" height="50" as="geometry" />
        </mxCell>
        <mxCell id="PTWqVlbE14Y938z7VgFS-89" value="" style="endArrow=classic;html=1;rounded=0;fontSize=10;entryX=0.55;entryY=0.95;entryDx=0;entryDy=0;entryPerimeter=0;" parent="STwrOhRklooQAh6NSAL1-0" target="PTWqVlbE14Y938z7VgFS-54" edge="1">
          <mxGeometry width="50" height="50" relative="1" as="geometry">
            <mxPoint x="710" y="742" as="sourcePoint" />
            <mxPoint x="826.63" y="322" as="targetPoint" />
            <Array as="points">
              <mxPoint x="826" y="742" />
            </Array>
          </mxGeometry>
        </mxCell>
        <mxCell id="PTWqVlbE14Y938z7VgFS-90" value="接待室护士扫码完成事件" style="edgeLabel;html=1;align=center;verticalAlign=middle;resizable=0;points=[];fontSize=10;" parent="PTWqVlbE14Y938z7VgFS-89" vertex="1" connectable="0">
          <mxGeometry x="-0.8619" y="-1" relative="1" as="geometry">
            <mxPoint x="46" y="12" as="offset" />
          </mxGeometry>
        </mxCell>
        <mxCell id="PTWqVlbE14Y938z7VgFS-91" value="护工送达接待室" style="edgeLabel;html=1;align=center;verticalAlign=middle;resizable=0;points=[];fontSize=10;" parent="PTWqVlbE14Y938z7VgFS-89" vertex="1" connectable="0">
          <mxGeometry x="-0.7432" relative="1" as="geometry">
            <mxPoint x="-11" y="-14" as="offset" />
          </mxGeometry>
        </mxCell>
        <mxCell id="PTWqVlbE14Y938z7VgFS-94" value="联系手术医生或麻醉师签字画标记" style="whiteSpace=wrap;html=1;fillColor=rgb(255, 255, 255);strokeColor=rgb(0, 0, 0);fontColor=rgb(0, 0, 0);" parent="STwrOhRklooQAh6NSAL1-0" vertex="1">
          <mxGeometry x="447" y="791" width="70" height="60" as="geometry" />
        </mxCell>
        <mxCell id="STwrOhRklooQAh6NSAL1-11" value="Process" style="swimlane;whiteSpace=wrap" parent="STwrOhRklooQAh6NSAL1-0" vertex="1">
          <mxGeometry x="424.5" width="485.5" height="1750" as="geometry">
            <mxRectangle x="444.5" y="128" width="80" height="23" as="alternateBounds" />
          </mxGeometry>
        </mxCell>
        <mxCell id="STwrOhRklooQAh6NSAL1-12" value="" style="ellipse;shape=startState;fillColor=#000000;strokeColor=#ff0000;" parent="STwrOhRklooQAh6NSAL1-11" vertex="1">
          <mxGeometry x="208" y="40" width="30" height="30" as="geometry" />
        </mxCell>
        <mxCell id="STwrOhRklooQAh6NSAL1-13" value="" style="edgeStyle=elbowEdgeStyle;elbow=horizontal;verticalAlign=bottom;endArrow=open;endSize=8;strokeColor=#FF0000;endFill=1;rounded=0" parent="STwrOhRklooQAh6NSAL1-11" source="STwrOhRklooQAh6NSAL1-12" target="STwrOhRklooQAh6NSAL1-14" edge="1">
          <mxGeometry x="188" y="20" as="geometry">
            <mxPoint x="203" y="90" as="targetPoint" />
          </mxGeometry>
        </mxCell>
        <mxCell id="STwrOhRklooQAh6NSAL1-14" value="医嘱下达明天手术" style="" parent="STwrOhRklooQAh6NSAL1-11" vertex="1">
          <mxGeometry x="168" y="92" width="110" height="38" as="geometry" />
        </mxCell>
        <mxCell id="STwrOhRklooQAh6NSAL1-15" value="病房患者信息核对" style="" parent="STwrOhRklooQAh6NSAL1-11" vertex="1">
          <mxGeometry x="168" y="220" width="110" height="50" as="geometry" />
        </mxCell>
        <mxCell id="STwrOhRklooQAh6NSAL1-16" value="" style="endArrow=open;strokeColor=#FF0000;endFill=1;rounded=0;exitX=0.5;exitY=1;exitDx=0;exitDy=0;entryX=0.504;entryY=0.014;entryDx=0;entryDy=0;entryPerimeter=0;" parent="STwrOhRklooQAh6NSAL1-11" source="PTWqVlbE14Y938z7VgFS-39" target="STwrOhRklooQAh6NSAL1-15" edge="1">
          <mxGeometry relative="1" as="geometry" />
        </mxCell>
        <mxCell id="PTWqVlbE14Y938z7VgFS-30" value="缺项" style="rhombus;fillColor=#ffffc0;strokeColor=#ff0000;" parent="STwrOhRklooQAh6NSAL1-11" vertex="1">
          <mxGeometry x="55.5" y="225" width="85.5" height="40" as="geometry" />
        </mxCell>
        <mxCell id="PTWqVlbE14Y938z7VgFS-31" value="yes" style="edgeStyle=elbowEdgeStyle;elbow=horizontal;align=left;verticalAlign=bottom;endArrow=open;endSize=8;strokeColor=#FF0000;exitX=0.5;exitY=0;endFill=1;rounded=0;entryX=0.504;entryY=0.991;entryDx=0;entryDy=0;entryPerimeter=0;" parent="STwrOhRklooQAh6NSAL1-11" source="PTWqVlbE14Y938z7VgFS-30" target="PTWqVlbE14Y938z7VgFS-42" edge="1">
          <mxGeometry x="-1" relative="1" as="geometry">
            <mxPoint x="98.5" y="182" as="targetPoint" />
            <Array as="points">
              <mxPoint x="98" y="192" />
            </Array>
          </mxGeometry>
        </mxCell>
        <mxCell id="PTWqVlbE14Y938z7VgFS-33" value="" style="endArrow=open;strokeColor=#FF0000;endFill=1;rounded=0;exitX=-0.017;exitY=0.524;exitDx=0;exitDy=0;exitPerimeter=0;" parent="STwrOhRklooQAh6NSAL1-11" source="STwrOhRklooQAh6NSAL1-15" target="PTWqVlbE14Y938z7VgFS-30" edge="1">
          <mxGeometry relative="1" as="geometry">
            <mxPoint x="165.5" y="245" as="sourcePoint" />
          </mxGeometry>
        </mxCell>
        <mxCell id="PTWqVlbE14Y938z7VgFS-39" value="医生术前谈话+标记" style="" parent="STwrOhRklooQAh6NSAL1-11" vertex="1">
          <mxGeometry x="168" y="152" width="110" height="38" as="geometry" />
        </mxCell>
        <mxCell id="PTWqVlbE14Y938z7VgFS-41" value="" style="endArrow=open;strokeColor=#FF0000;endFill=1;rounded=0;exitX=0.497;exitY=1.027;exitDx=0;exitDy=0;exitPerimeter=0;entryX=0.497;entryY=0.008;entryDx=0;entryDy=0;entryPerimeter=0;" parent="STwrOhRklooQAh6NSAL1-11" source="STwrOhRklooQAh6NSAL1-14" target="PTWqVlbE14Y938z7VgFS-39" edge="1">
          <mxGeometry relative="1" as="geometry">
            <mxPoint x="178" y="255" as="sourcePoint" />
            <mxPoint x="151" y="255" as="targetPoint" />
          </mxGeometry>
        </mxCell>
        <mxCell id="PTWqVlbE14Y938z7VgFS-42" value="&lt;font style=&quot;font-size: 10px&quot;&gt;系统提示医生&lt;/font&gt;" style="whiteSpace=wrap;html=1;fillColor=#ffffc0;strokeColor=#ff0000;fontColor=rgb(0, 0, 0);fontSize=7;" parent="STwrOhRklooQAh6NSAL1-11" vertex="1">
          <mxGeometry x="60.5" y="152.5" width="75.5" height="37.5" as="geometry" />
        </mxCell>
        <mxCell id="PTWqVlbE14Y938z7VgFS-45" value="" style="endArrow=open;strokeColor=#FF0000;endFill=1;rounded=0;exitX=1.007;exitY=0.531;exitDx=0;exitDy=0;exitPerimeter=0;entryX=-0.011;entryY=0.555;entryDx=0;entryDy=0;entryPerimeter=0;" parent="STwrOhRklooQAh6NSAL1-11" source="PTWqVlbE14Y938z7VgFS-42" target="PTWqVlbE14Y938z7VgFS-39" edge="1">
          <mxGeometry relative="1" as="geometry">
            <mxPoint x="287.8900000000001" y="254.1500000000001" as="sourcePoint" />
            <mxPoint x="165.5" y="172" as="targetPoint" />
          </mxGeometry>
        </mxCell>
        <mxCell id="PTWqVlbE14Y938z7VgFS-53" value="" style="shape=curlyBracket;whiteSpace=wrap;html=1;rounded=1;flipH=1;fontSize=10;" parent="STwrOhRklooQAh6NSAL1-11" vertex="1">
          <mxGeometry x="285.5" y="242" width="20" height="68" as="geometry" />
        </mxCell>
        <mxCell id="PTWqVlbE14Y938z7VgFS-92" value="&lt;span&gt;术前资料&lt;/span&gt;缺项" style="rhombus;whiteSpace=wrap;html=1;fillColor=rgb(255, 255, 255);strokeColor=rgb(0, 0, 0);fontColor=rgb(0, 0, 0);" parent="STwrOhRklooQAh6NSAL1-11" vertex="1">
          <mxGeometry x="141" y="792" width="80" height="55" as="geometry" />
        </mxCell>
        <mxCell id="PTWqVlbE14Y938z7VgFS-133" value="患者到达手术室" style="whiteSpace=wrap;html=1;fillColor=rgb(255, 255, 255);strokeColor=rgb(0, 0, 0);fontColor=rgb(0, 0, 0);" parent="STwrOhRklooQAh6NSAL1-11" vertex="1">
          <mxGeometry x="163" y="981" width="120" height="60" as="geometry" />
        </mxCell>
        <mxCell id="PTWqVlbE14Y938z7VgFS-63" value="" style="endArrow=open;strokeColor=#FF0000;endFill=1;rounded=0;exitX=0.494;exitY=1.02;exitDx=0;exitDy=0;exitPerimeter=0;entryX=0.494;entryY=0.004;entryDx=0;entryDy=0;entryPerimeter=0;" parent="STwrOhRklooQAh6NSAL1-0" source="STwrOhRklooQAh6NSAL1-15" target="PTWqVlbE14Y938z7VgFS-62" edge="1">
          <mxGeometry relative="1" as="geometry">
            <mxPoint x="655.8499999999999" y="325.616" as="sourcePoint" />
            <mxPoint x="655.96" y="360" as="targetPoint" />
          </mxGeometry>
        </mxCell>
        <mxCell id="PTWqVlbE14Y938z7VgFS-32" value="no" style="edgeStyle=elbowEdgeStyle;elbow=horizontal;align=left;verticalAlign=top;endArrow=open;endSize=8;strokeColor=#FF0000;endFill=1;rounded=0;entryX=0.008;entryY=0.507;entryDx=0;entryDy=0;entryPerimeter=0;" parent="STwrOhRklooQAh6NSAL1-0" source="PTWqVlbE14Y938z7VgFS-30" target="STwrOhRklooQAh6NSAL1-17" edge="1">
          <mxGeometry x="-1" relative="1" as="geometry">
            <mxPoint x="565.8571428571429" y="339.5" as="targetPoint" />
            <Array as="points">
              <mxPoint x="482.5" y="292" />
            </Array>
          </mxGeometry>
        </mxCell>
        <mxCell id="PTWqVlbE14Y938z7VgFS-55" value="" style="edgeStyle=orthogonalEdgeStyle;rounded=0;orthogonalLoop=1;jettySize=auto;html=1;fontSize=10;" parent="STwrOhRklooQAh6NSAL1-0" source="PTWqVlbE14Y938z7VgFS-53" target="PTWqVlbE14Y938z7VgFS-54" edge="1">
          <mxGeometry relative="1" as="geometry" />
        </mxCell>
        <mxCell id="PTWqVlbE14Y938z7VgFS-95" value="" style="edgeStyle=orthogonalEdgeStyle;rounded=0;orthogonalLoop=1;jettySize=auto;html=1;fontSize=10;entryX=1.043;entryY=0.467;entryDx=0;entryDy=0;entryPerimeter=0;" parent="STwrOhRklooQAh6NSAL1-0" source="PTWqVlbE14Y938z7VgFS-92" target="PTWqVlbE14Y938z7VgFS-94" edge="1">
          <mxGeometry relative="1" as="geometry">
            <mxPoint x="550" y="819" as="targetPoint" />
            <Array as="points" />
          </mxGeometry>
        </mxCell>
        <mxCell id="PTWqVlbE14Y938z7VgFS-96" value="yes" style="edgeLabel;html=1;align=center;verticalAlign=middle;resizable=0;points=[];fontSize=10;" parent="PTWqVlbE14Y938z7VgFS-95" vertex="1" connectable="0">
          <mxGeometry x="-0.1852" relative="1" as="geometry">
            <mxPoint x="-8" y="-12" as="offset" />
          </mxGeometry>
        </mxCell>
        <mxCell id="PTWqVlbE14Y938z7VgFS-134" value="" style="edgeStyle=orthogonalEdgeStyle;rounded=0;orthogonalLoop=1;jettySize=auto;html=1;fontSize=10;" parent="STwrOhRklooQAh6NSAL1-0" source="PTWqVlbE14Y938z7VgFS-97" edge="1">
          <mxGeometry relative="1" as="geometry">
            <mxPoint x="648" y="982" as="targetPoint" />
          </mxGeometry>
        </mxCell>
        <mxCell id="PTWqVlbE14Y938z7VgFS-97" value="送手术室，触发完成事件" style="whiteSpace=wrap;html=1;fillColor=rgb(255, 255, 255);strokeColor=rgb(0, 0, 0);fontColor=rgb(0, 0, 0);" parent="STwrOhRklooQAh6NSAL1-0" vertex="1">
          <mxGeometry x="587.5" y="872" width="120" height="60" as="geometry" />
        </mxCell>
        <mxCell id="PTWqVlbE14Y938z7VgFS-98" value="" style="edgeStyle=orthogonalEdgeStyle;rounded=0;orthogonalLoop=1;jettySize=auto;html=1;fontSize=10;entryX=0.151;entryY=0.011;entryDx=0;entryDy=0;entryPerimeter=0;" parent="STwrOhRklooQAh6NSAL1-0" source="PTWqVlbE14Y938z7VgFS-92" target="PTWqVlbE14Y938z7VgFS-97" edge="1">
          <mxGeometry relative="1" as="geometry">
            <mxPoint x="606" y="867" as="targetPoint" />
            <Array as="points">
              <mxPoint x="606" y="857" />
            </Array>
          </mxGeometry>
        </mxCell>
        <mxCell id="PTWqVlbE14Y938z7VgFS-99" value="no" style="edgeLabel;html=1;align=center;verticalAlign=middle;resizable=0;points=[];fontSize=10;" parent="PTWqVlbE14Y938z7VgFS-98" vertex="1" connectable="0">
          <mxGeometry x="-0.7302" y="-1" relative="1" as="geometry">
            <mxPoint x="13" y="3" as="offset" />
          </mxGeometry>
        </mxCell>
        <mxCell id="PTWqVlbE14Y938z7VgFS-100" value="" style="edgeStyle=orthogonalEdgeStyle;rounded=0;orthogonalLoop=1;jettySize=auto;html=1;fontSize=10;exitX=0.5;exitY=-0.028;exitDx=0;exitDy=0;exitPerimeter=0;" parent="STwrOhRklooQAh6NSAL1-0" source="PTWqVlbE14Y938z7VgFS-94" edge="1">
          <mxGeometry relative="1" as="geometry">
            <mxPoint x="583" y="737" as="targetPoint" />
            <Array as="points">
              <mxPoint x="481" y="738" />
              <mxPoint x="580" y="738" />
              <mxPoint x="580" y="737" />
            </Array>
          </mxGeometry>
        </mxCell>
        <mxCell id="PTWqVlbE14Y938z7VgFS-101" value="深静脉置管知情同意书" style="shape=document;whiteSpace=wrap;html=1;boundedLbl=1;fillColor=#fad7ac;strokeColor=#b46504;" parent="STwrOhRklooQAh6NSAL1-0" vertex="1">
          <mxGeometry x="120" y="254" width="104.5" height="62" as="geometry" />
        </mxCell>
        <mxCell id="PTWqVlbE14Y938z7VgFS-103" value="深静脉置管？" style="rhombus;whiteSpace=wrap;html=1;fillColor=rgb(255, 255, 255);strokeColor=rgb(0, 0, 0);fontColor=rgb(0, 0, 0);" parent="STwrOhRklooQAh6NSAL1-0" vertex="1">
          <mxGeometry x="650" y="793.5" width="80" height="55" as="geometry" />
        </mxCell>
        <mxCell id="PTWqVlbE14Y938z7VgFS-104" value="" style="edgeStyle=orthogonalEdgeStyle;rounded=0;orthogonalLoop=1;jettySize=auto;html=1;fontSize=10;exitX=0.832;exitY=0.991;exitDx=0;exitDy=0;exitPerimeter=0;entryX=0.5;entryY=0;entryDx=0;entryDy=0;" parent="STwrOhRklooQAh6NSAL1-0" source="PTWqVlbE14Y938z7VgFS-87" target="PTWqVlbE14Y938z7VgFS-103" edge="1">
          <mxGeometry relative="1" as="geometry">
            <mxPoint x="658" y="772" as="sourcePoint" />
            <mxPoint x="615.4883720930234" y="802.0079941860463" as="targetPoint" />
          </mxGeometry>
        </mxCell>
        <mxCell id="PTWqVlbE14Y938z7VgFS-105" value="" style="edgeStyle=orthogonalEdgeStyle;rounded=0;orthogonalLoop=1;jettySize=auto;html=1;fontSize=10;exitX=0.5;exitY=1;exitDx=0;exitDy=0;" parent="STwrOhRklooQAh6NSAL1-0" source="PTWqVlbE14Y938z7VgFS-103" edge="1">
          <mxGeometry relative="1" as="geometry">
            <mxPoint x="690" y="852" as="sourcePoint" />
            <mxPoint x="690" y="872" as="targetPoint" />
            <Array as="points">
              <mxPoint x="690" y="862" />
              <mxPoint x="690" y="862" />
            </Array>
          </mxGeometry>
        </mxCell>
        <mxCell id="PTWqVlbE14Y938z7VgFS-106" value="no" style="edgeLabel;html=1;align=center;verticalAlign=middle;resizable=0;points=[];fontSize=10;" parent="PTWqVlbE14Y938z7VgFS-105" vertex="1" connectable="0">
          <mxGeometry x="-0.2595" relative="1" as="geometry">
            <mxPoint x="12" as="offset" />
          </mxGeometry>
        </mxCell>
        <mxCell id="PTWqVlbE14Y938z7VgFS-107" value="" style="edgeStyle=orthogonalEdgeStyle;rounded=0;orthogonalLoop=1;jettySize=auto;html=1;fontSize=10;exitX=1;exitY=0.5;exitDx=0;exitDy=0;entryX=-0.005;entryY=0.506;entryDx=0;entryDy=0;entryPerimeter=0;" parent="STwrOhRklooQAh6NSAL1-0" source="PTWqVlbE14Y938z7VgFS-103" target="PTWqVlbE14Y938z7VgFS-109" edge="1">
          <mxGeometry relative="1" as="geometry">
            <mxPoint x="815.5000000000005" y="809.9899999999998" as="sourcePoint" />
            <mxPoint x="760" y="810" as="targetPoint" />
            <Array as="points" />
          </mxGeometry>
        </mxCell>
        <mxCell id="PTWqVlbE14Y938z7VgFS-108" value="yes" style="edgeLabel;html=1;align=center;verticalAlign=middle;resizable=0;points=[];fontSize=10;" parent="PTWqVlbE14Y938z7VgFS-107" vertex="1" connectable="0">
          <mxGeometry x="-0.1852" relative="1" as="geometry">
            <mxPoint x="-8" y="-12" as="offset" />
          </mxGeometry>
        </mxCell>
        <mxCell id="PTWqVlbE14Y938z7VgFS-109" value="排队-置管" style="whiteSpace=wrap;html=1;fillColor=rgb(255, 255, 255);strokeColor=rgb(0, 0, 0);fontColor=rgb(0, 0, 0);" parent="STwrOhRklooQAh6NSAL1-0" vertex="1">
          <mxGeometry x="770" y="791" width="70" height="60" as="geometry" />
        </mxCell>
        <mxCell id="PTWqVlbE14Y938z7VgFS-110" value="" style="edgeStyle=orthogonalEdgeStyle;rounded=0;orthogonalLoop=1;jettySize=auto;html=1;fontSize=10;exitX=0.487;exitY=0.987;exitDx=0;exitDy=0;entryX=0.995;entryY=0.461;entryDx=0;entryDy=0;entryPerimeter=0;exitPerimeter=0;" parent="STwrOhRklooQAh6NSAL1-0" source="PTWqVlbE14Y938z7VgFS-109" target="PTWqVlbE14Y938z7VgFS-97" edge="1">
          <mxGeometry relative="1" as="geometry">
            <mxPoint x="700" y="858.5" as="sourcePoint" />
            <mxPoint x="700" y="882.0000000000002" as="targetPoint" />
            <Array as="points">
              <mxPoint x="804" y="900" />
            </Array>
          </mxGeometry>
        </mxCell>
        <mxCell id="PTWqVlbE14Y938z7VgFS-111" value="no" style="edgeLabel;html=1;align=center;verticalAlign=middle;resizable=0;points=[];fontSize=10;" parent="PTWqVlbE14Y938z7VgFS-110" vertex="1" connectable="0">
          <mxGeometry x="-0.2595" relative="1" as="geometry">
            <mxPoint x="12" as="offset" />
          </mxGeometry>
        </mxCell>
        <mxCell id="PTWqVlbE14Y938z7VgFS-132" value="" style="edgeStyle=orthogonalEdgeStyle;rounded=0;orthogonalLoop=1;jettySize=auto;html=1;fontSize=10;entryX=-0.012;entryY=0.502;entryDx=0;entryDy=0;entryPerimeter=0;" parent="STwrOhRklooQAh6NSAL1-0" source="PTWqVlbE14Y938z7VgFS-115" target="PTWqVlbE14Y938z7VgFS-97" edge="1">
          <mxGeometry relative="1" as="geometry">
            <mxPoint x="410" y="901.9999999999998" as="targetPoint" />
          </mxGeometry>
        </mxCell>
        <mxCell id="PTWqVlbE14Y938z7VgFS-115" value="手术室&amp;nbsp; Idle" style="whiteSpace=wrap;html=1;fillColor=rgb(255, 255, 255);strokeColor=rgb(0, 0, 0);fontColor=rgb(0, 0, 0);" parent="STwrOhRklooQAh6NSAL1-0" vertex="1">
          <mxGeometry x="180" y="872" width="120" height="60" as="geometry" />
        </mxCell>
        <mxCell id="PTWqVlbE14Y938z7VgFS-116" value="患者术中信息表" style="swimlane;fontStyle=0;childLayout=stackLayout;horizontal=1;startSize=30;horizontalStack=0;resizeParent=1;resizeParentMax=0;resizeLast=0;collapsible=1;marginBottom=0;fontSize=10;" parent="STwrOhRklooQAh6NSAL1-0" vertex="1">
          <mxGeometry x="930" y="1052" width="140" height="90" as="geometry" />
        </mxCell>
        <mxCell id="PTWqVlbE14Y938z7VgFS-117" value="Item 1" style="text;strokeColor=none;fillColor=none;align=left;verticalAlign=middle;spacingLeft=4;spacingRight=4;overflow=hidden;points=[[0,0.5],[1,0.5]];portConstraint=eastwest;rotatable=0;fontSize=10;" parent="PTWqVlbE14Y938z7VgFS-116" vertex="1">
          <mxGeometry y="30" width="140" height="30" as="geometry" />
        </mxCell>
        <mxCell id="PTWqVlbE14Y938z7VgFS-118" value="Item 2" style="text;strokeColor=none;fillColor=none;align=left;verticalAlign=middle;spacingLeft=4;spacingRight=4;overflow=hidden;points=[[0,0.5],[1,0.5]];portConstraint=eastwest;rotatable=0;fontSize=10;" parent="PTWqVlbE14Y938z7VgFS-116" vertex="1">
          <mxGeometry y="60" width="140" height="30" as="geometry" />
        </mxCell>
        <mxCell id="STwrOhRklooQAh6NSAL1-30" value="outPut" style="swimlane;whiteSpace=wrap" parent="Koh-GuARSo2pHLwbyBPv-1" vertex="1">
          <mxGeometry x="930" y="128" width="280" height="1752" as="geometry" />
        </mxCell>
        <mxCell id="PTWqVlbE14Y938z7VgFS-128" value="患者信息-家属信息图" style="swimlane;fontStyle=0;childLayout=stackLayout;horizontal=1;startSize=30;horizontalStack=0;resizeParent=1;resizeParentMax=0;resizeLast=0;collapsible=1;marginBottom=0;fontSize=10;" parent="STwrOhRklooQAh6NSAL1-30" vertex="1">
          <mxGeometry x="70" y="582" width="140" height="90" as="geometry" />
        </mxCell>
        <mxCell id="PTWqVlbE14Y938z7VgFS-129" value="Item 1" style="text;strokeColor=none;fillColor=none;align=left;verticalAlign=middle;spacingLeft=4;spacingRight=4;overflow=hidden;points=[[0,0.5],[1,0.5]];portConstraint=eastwest;rotatable=0;fontSize=10;" parent="PTWqVlbE14Y938z7VgFS-128" vertex="1">
          <mxGeometry y="30" width="140" height="30" as="geometry" />
        </mxCell>
        <mxCell id="PTWqVlbE14Y938z7VgFS-130" value="Item 2" style="text;strokeColor=none;fillColor=none;align=left;verticalAlign=middle;spacingLeft=4;spacingRight=4;overflow=hidden;points=[[0,0.5],[1,0.5]];portConstraint=eastwest;rotatable=0;fontSize=10;" parent="PTWqVlbE14Y938z7VgFS-128" vertex="1">
          <mxGeometry y="60" width="140" height="30" as="geometry" />
        </mxCell>
        <mxCell id="STwrOhRklooQAh6NSAL1-37" value="手术流程管理" style="rounded=1;whiteSpace=wrap;html=1;fillColor=#fff2cc;strokeColor=#d6b656;fontColor=#7A5E87;fontStyle=1;fontSize=16;" parent="Koh-GuARSo2pHLwbyBPv-1" vertex="1">
          <mxGeometry x="30" y="20" width="120" height="60" as="geometry" />
        </mxCell>
        <mxCell id="PTWqVlbE14Y938z7VgFS-29" value="" style="endArrow=open;strokeColor=#FF0000;endFill=1;rounded=0;exitX=1;exitY=0.5;exitDx=0;exitDy=0;exitPerimeter=0;" parent="Koh-GuARSo2pHLwbyBPv-1" source="PTWqVlbE14Y938z7VgFS-27" edge="1">
          <mxGeometry relative="1" as="geometry">
            <mxPoint x="419.5" y="311.48249999999996" as="sourcePoint" />
            <mxPoint x="640" y="350" as="targetPoint" />
            <Array as="points">
              <mxPoint x="480" y="312" />
              <mxPoint x="480" y="330" />
              <mxPoint x="640" y="330" />
            </Array>
          </mxGeometry>
        </mxCell>
        <mxCell id="STwrOhRklooQAh6NSAL1-19" value="缺项" style="rhombus;fillColor=#ffffc0;strokeColor=#ff0000;" parent="Koh-GuARSo2pHLwbyBPv-1" vertex="1">
          <mxGeometry x="680" y="2172.5" width="80" height="40" as="geometry" />
        </mxCell>
        <mxCell id="STwrOhRklooQAh6NSAL1-20" value="yes" style="edgeStyle=elbowEdgeStyle;elbow=horizontal;align=left;verticalAlign=bottom;endArrow=open;endSize=8;strokeColor=#FF0000;exitX=0.5;exitY=0;endFill=1;rounded=0;entryX=0.75;entryY=0.5;entryPerimeter=0" parent="Koh-GuARSo2pHLwbyBPv-1" source="STwrOhRklooQAh6NSAL1-19" target="STwrOhRklooQAh6NSAL1-23" edge="1">
          <mxGeometry x="-1" relative="1" as="geometry">
            <mxPoint x="690" y="2097.5" as="targetPoint" />
            <Array as="points">
              <mxPoint x="720" y="2127.5" />
            </Array>
          </mxGeometry>
        </mxCell>
        <mxCell id="STwrOhRklooQAh6NSAL1-21" value="no" style="edgeStyle=elbowEdgeStyle;elbow=horizontal;align=left;verticalAlign=top;endArrow=open;endSize=8;strokeColor=#FF0000;endFill=1;rounded=0" parent="Koh-GuARSo2pHLwbyBPv-1" source="STwrOhRklooQAh6NSAL1-19" target="STwrOhRklooQAh6NSAL1-25" edge="1">
          <mxGeometry x="-1" relative="1" as="geometry">
            <mxPoint x="720" y="2252.5" as="targetPoint" />
          </mxGeometry>
        </mxCell>
        <mxCell id="STwrOhRklooQAh6NSAL1-23" value="" style="shape=line;strokeWidth=6;strokeColor=#ff0000;rotation=90" parent="Koh-GuARSo2pHLwbyBPv-1" vertex="1">
          <mxGeometry x="660" y="2075" width="50" height="15" as="geometry" />
        </mxCell>
        <mxCell id="STwrOhRklooQAh6NSAL1-25" value="dispatch&#xa;command&#xa;worker thread" style="" parent="Koh-GuARSo2pHLwbyBPv-1" vertex="1">
          <mxGeometry x="670" y="2272.5" width="110" height="50" as="geometry" />
        </mxCell>
        <mxCell id="STwrOhRklooQAh6NSAL1-28" value="" style="whiteSpace=wrap;strokeColor=#FF0000;fillColor=#FF0000" parent="Koh-GuARSo2pHLwbyBPv-1" vertex="1">
          <mxGeometry x="775" y="2342.5" width="5" height="45" as="geometry" />
        </mxCell>
        <mxCell id="STwrOhRklooQAh6NSAL1-29" value="" style="edgeStyle=elbowEdgeStyle;elbow=horizontal;entryX=0;entryY=0.5;strokeColor=#FF0000;endArrow=open;endFill=1;rounded=0" parent="Koh-GuARSo2pHLwbyBPv-1" source="STwrOhRklooQAh6NSAL1-25" target="STwrOhRklooQAh6NSAL1-28" edge="1">
          <mxGeometry width="100" height="100" relative="1" as="geometry">
            <mxPoint x="590" y="2427.5" as="sourcePoint" />
            <mxPoint x="690" y="2327.5" as="targetPoint" />
            <Array as="points">
              <mxPoint x="725" y="2347.5" />
            </Array>
          </mxGeometry>
        </mxCell>
        <mxCell id="STwrOhRklooQAh6NSAL1-32" value="" style="edgeStyle=elbowEdgeStyle;elbow=horizontal;strokeColor=#FF0000;endArrow=open;endFill=1;rounded=0;entryX=0.25;entryY=0.5;entryPerimeter=0" parent="Koh-GuARSo2pHLwbyBPv-1" target="STwrOhRklooQAh6NSAL1-23" edge="1">
          <mxGeometry width="100" height="100" relative="1" as="geometry">
            <mxPoint x="837.5" y="2357.5" as="sourcePoint" />
            <mxPoint x="747.5" y="2067.5" as="targetPoint" />
            <Array as="points">
              <mxPoint x="857.5" y="2082.5" />
            </Array>
          </mxGeometry>
        </mxCell>
        <mxCell id="STwrOhRklooQAh6NSAL1-26" value="critical&#xa;section" style="shape=note;whiteSpace=wrap;size=17" parent="Koh-GuARSo2pHLwbyBPv-1" vertex="1">
          <mxGeometry x="970" y="2255" width="100" height="50" as="geometry" />
        </mxCell>
        <mxCell id="STwrOhRklooQAh6NSAL1-31" value="process&#xa;command" style="" parent="Koh-GuARSo2pHLwbyBPv-1" vertex="1">
          <mxGeometry x="1350" y="2170" width="110" height="50" as="geometry" />
        </mxCell>
        <mxCell id="STwrOhRklooQAh6NSAL1-33" value="" style="edgeStyle=none;strokeColor=#FF0000;endArrow=open;endFill=1;rounded=0" parent="Koh-GuARSo2pHLwbyBPv-1" edge="1">
          <mxGeometry width="100" height="100" relative="1" as="geometry">
            <mxPoint x="1133" y="2189.5" as="sourcePoint" />
            <mxPoint x="1308" y="2190" as="targetPoint" />
          </mxGeometry>
        </mxCell>
        <mxCell id="STwrOhRklooQAh6NSAL1-34" value="" style="ellipse;shape=endState;fillColor=#000000;strokeColor=#ff0000" parent="Koh-GuARSo2pHLwbyBPv-1" vertex="1">
          <mxGeometry x="1293" y="2260" width="30" height="30" as="geometry" />
        </mxCell>
        <mxCell id="STwrOhRklooQAh6NSAL1-35" value="" style="endArrow=open;strokeColor=#FF0000;endFill=1;rounded=0" parent="Koh-GuARSo2pHLwbyBPv-1" target="STwrOhRklooQAh6NSAL1-34" edge="1">
          <mxGeometry relative="1" as="geometry">
            <mxPoint x="1308" y="2190" as="sourcePoint" />
          </mxGeometry>
        </mxCell>
        <mxCell id="PTWqVlbE14Y938z7VgFS-59" value="手术室医生联系护士站&#xa;接送患者信息核对" style="" parent="Koh-GuARSo2pHLwbyBPv-1" vertex="1">
          <mxGeometry x="605" y="559" width="125" height="51" as="geometry" />
        </mxCell>
        <mxCell id="PTWqVlbE14Y938z7VgFS-60" value="" style="endArrow=open;strokeColor=#FF0000;endFill=1;rounded=0;exitX=0.487;exitY=1.072;exitDx=0;exitDy=0;exitPerimeter=0;entryX=0.494;entryY=0.032;entryDx=0;entryDy=0;entryPerimeter=0;" parent="Koh-GuARSo2pHLwbyBPv-1" source="STwrOhRklooQAh6NSAL1-17" target="PTWqVlbE14Y938z7VgFS-59" edge="1">
          <mxGeometry relative="1" as="geometry">
            <mxPoint x="665.6099999999999" y="519.9999999999999" as="sourcePoint" />
            <mxPoint x="664.4000000000001" y="574.65" as="targetPoint" />
          </mxGeometry>
        </mxCell>
        <mxCell id="PTWqVlbE14Y938z7VgFS-61" value="病房护士联系护工&#xa;运输患者" style="" parent="Koh-GuARSo2pHLwbyBPv-1" vertex="1">
          <mxGeometry x="603" y="653" width="125" height="50" as="geometry" />
        </mxCell>
        <mxCell id="PTWqVlbE14Y938z7VgFS-66" value="" style="endArrow=classic;html=1;rounded=0;fontSize=10;exitX=1.018;exitY=0.577;exitDx=0;exitDy=0;exitPerimeter=0;entryX=0.55;entryY=0.95;entryDx=0;entryDy=0;entryPerimeter=0;" parent="Koh-GuARSo2pHLwbyBPv-1" source="PTWqVlbE14Y938z7VgFS-59" target="PTWqVlbE14Y938z7VgFS-54" edge="1">
          <mxGeometry width="50" height="50" relative="1" as="geometry">
            <mxPoint x="777.5" y="584" as="sourcePoint" />
            <mxPoint x="890" y="585" as="targetPoint" />
            <Array as="points">
              <mxPoint x="846" y="588" />
            </Array>
          </mxGeometry>
        </mxCell>
        <mxCell id="PTWqVlbE14Y938z7VgFS-71" value="病房护士输入工号，完成事件" style="edgeLabel;html=1;align=center;verticalAlign=middle;resizable=0;points=[];fontSize=10;" parent="PTWqVlbE14Y938z7VgFS-66" vertex="1" connectable="0">
          <mxGeometry x="-0.8619" y="-1" relative="1" as="geometry">
            <mxPoint x="64" y="13" as="offset" />
          </mxGeometry>
        </mxCell>
        <mxCell id="PTWqVlbE14Y938z7VgFS-67" value="" style="endArrow=open;strokeColor=#FF0000;endFill=1;rounded=0;exitX=-0.011;exitY=0.497;exitDx=0;exitDy=0;exitPerimeter=0;entryX=1;entryY=0.5;entryDx=0;entryDy=0;" parent="Koh-GuARSo2pHLwbyBPv-1" source="PTWqVlbE14Y938z7VgFS-78" target="PTWqVlbE14Y938z7VgFS-30" edge="1">
          <mxGeometry relative="1" as="geometry">
            <mxPoint x="559.9999999999999" y="569.9960000000001" as="sourcePoint" />
            <mxPoint x="560.11" y="616.38" as="targetPoint" />
            <Array as="points">
              <mxPoint x="586" y="765" />
            </Array>
          </mxGeometry>
        </mxCell>
        <mxCell id="PTWqVlbE14Y938z7VgFS-72" value="巡回护士发起事件" style="edgeLabel;html=1;align=center;verticalAlign=middle;resizable=0;points=[];fontSize=10;" parent="Koh-GuARSo2pHLwbyBPv-1" vertex="1" connectable="0">
          <mxGeometry x="785.9969579835953" y="570.9981729264556" as="geometry" />
        </mxCell>
        <mxCell id="PTWqVlbE14Y938z7VgFS-74" value="" style="endArrow=open;strokeColor=#FF0000;endFill=1;rounded=0;exitX=0.489;exitY=1.007;exitDx=0;exitDy=0;exitPerimeter=0;entryX=0.503;entryY=0.007;entryDx=0;entryDy=0;entryPerimeter=0;" parent="Koh-GuARSo2pHLwbyBPv-1" source="PTWqVlbE14Y938z7VgFS-59" target="PTWqVlbE14Y938z7VgFS-61" edge="1">
          <mxGeometry relative="1" as="geometry">
            <mxPoint x="667.0799999999999" y="623.6160000000001" as="sourcePoint" />
            <mxPoint x="667.19" y="670" as="targetPoint" />
          </mxGeometry>
        </mxCell>
        <mxCell id="PTWqVlbE14Y938z7VgFS-75" value="" style="endArrow=classic;html=1;rounded=0;fontSize=10;exitX=1.005;exitY=0.513;exitDx=0;exitDy=0;exitPerimeter=0;entryX=0.55;entryY=0.95;entryDx=0;entryDy=0;entryPerimeter=0;" parent="Koh-GuARSo2pHLwbyBPv-1" source="PTWqVlbE14Y938z7VgFS-61" target="PTWqVlbE14Y938z7VgFS-54" edge="1">
          <mxGeometry width="50" height="50" relative="1" as="geometry">
            <mxPoint x="742.25" y="598.4269999999999" as="sourcePoint" />
            <mxPoint x="856" y="450" as="targetPoint" />
            <Array as="points">
              <mxPoint x="846" y="680" />
            </Array>
          </mxGeometry>
        </mxCell>
        <mxCell id="PTWqVlbE14Y938z7VgFS-76" value="护工输入运输工具，完成事件" style="edgeLabel;html=1;align=center;verticalAlign=middle;resizable=0;points=[];fontSize=10;" parent="PTWqVlbE14Y938z7VgFS-75" vertex="1" connectable="0">
          <mxGeometry x="-0.8619" y="-1" relative="1" as="geometry">
            <mxPoint x="61" y="12" as="offset" />
          </mxGeometry>
        </mxCell>
        <mxCell id="PTWqVlbE14Y938z7VgFS-77" value="病房护士发起事件" style="edgeLabel;html=1;align=center;verticalAlign=middle;resizable=0;points=[];fontSize=10;" parent="PTWqVlbE14Y938z7VgFS-75" vertex="1" connectable="0">
          <mxGeometry x="-0.7432" relative="1" as="geometry">
            <mxPoint x="11" y="-14" as="offset" />
          </mxGeometry>
        </mxCell>
        <mxCell id="PTWqVlbE14Y938z7VgFS-78" value="病房护士最后核对&#xa;患者术前准备&#xa;与护工交接送达接待室" style="" parent="Koh-GuARSo2pHLwbyBPv-1" vertex="1">
          <mxGeometry x="603" y="740" width="125" height="50" as="geometry" />
        </mxCell>
        <mxCell id="PTWqVlbE14Y938z7VgFS-79" value="" style="endArrow=open;strokeColor=#FF0000;endFill=1;rounded=0;exitX=0.505;exitY=0.997;exitDx=0;exitDy=0;exitPerimeter=0;entryX=0.505;entryY=-0.043;entryDx=0;entryDy=0;entryPerimeter=0;" parent="Koh-GuARSo2pHLwbyBPv-1" source="PTWqVlbE14Y938z7VgFS-61" target="PTWqVlbE14Y938z7VgFS-78" edge="1">
          <mxGeometry relative="1" as="geometry">
            <mxPoint x="665.335" y="702.997" as="sourcePoint" />
            <mxPoint x="665.0850000000003" y="745.9900000000001" as="targetPoint" />
          </mxGeometry>
        </mxCell>
        <mxCell id="PTWqVlbE14Y938z7VgFS-81" value="" style="endArrow=classic;html=1;rounded=0;fontSize=10;entryX=0.55;entryY=0.95;entryDx=0;entryDy=0;entryPerimeter=0;exitX=0.995;exitY=0.608;exitDx=0;exitDy=0;exitPerimeter=0;" parent="Koh-GuARSo2pHLwbyBPv-1" source="PTWqVlbE14Y938z7VgFS-78" target="PTWqVlbE14Y938z7VgFS-54" edge="1">
          <mxGeometry width="50" height="50" relative="1" as="geometry">
            <mxPoint x="760" y="760" as="sourcePoint" />
            <mxPoint x="856" y="450" as="targetPoint" />
            <Array as="points">
              <mxPoint x="846" y="770" />
            </Array>
          </mxGeometry>
        </mxCell>
        <mxCell id="PTWqVlbE14Y938z7VgFS-82" value="护工送往接待室" style="edgeLabel;html=1;align=center;verticalAlign=middle;resizable=0;points=[];fontSize=10;" parent="PTWqVlbE14Y938z7VgFS-81" vertex="1" connectable="0">
          <mxGeometry x="-0.8619" y="-1" relative="1" as="geometry">
            <mxPoint x="22" y="11" as="offset" />
          </mxGeometry>
        </mxCell>
        <mxCell id="PTWqVlbE14Y938z7VgFS-83" value="病房护士确认送出发起事件" style="edgeLabel;html=1;align=center;verticalAlign=middle;resizable=0;points=[];fontSize=10;" parent="PTWqVlbE14Y938z7VgFS-81" vertex="1" connectable="0">
          <mxGeometry x="-0.7432" relative="1" as="geometry">
            <mxPoint x="25" y="-14" as="offset" />
          </mxGeometry>
        </mxCell>
        <mxCell id="PTWqVlbE14Y938z7VgFS-88" value="" style="endArrow=open;strokeColor=#FF0000;endFill=1;rounded=0;exitX=0.491;exitY=1.014;exitDx=0;exitDy=0;exitPerimeter=0;entryX=0.475;entryY=0.024;entryDx=0;entryDy=0;entryPerimeter=0;" parent="Koh-GuARSo2pHLwbyBPv-1" source="PTWqVlbE14Y938z7VgFS-78" target="PTWqVlbE14Y938z7VgFS-87" edge="1">
          <mxGeometry relative="1" as="geometry">
            <mxPoint x="667.025" y="799.9999999999999" as="sourcePoint" />
            <mxPoint x="667.025" y="834.9999999999999" as="targetPoint" />
          </mxGeometry>
        </mxCell>
        <mxCell id="PTWqVlbE14Y938z7VgFS-93" value="" style="edgeStyle=orthogonalEdgeStyle;rounded=0;orthogonalLoop=1;jettySize=auto;html=1;fontSize=10;" parent="Koh-GuARSo2pHLwbyBPv-1" target="PTWqVlbE14Y938z7VgFS-92" edge="1">
          <mxGeometry relative="1" as="geometry">
            <mxPoint x="668" y="890" as="sourcePoint" />
          </mxGeometry>
        </mxCell>
        <mxCell id="PTWqVlbE14Y938z7VgFS-112" value="" style="endArrow=classic;html=1;rounded=0;fontSize=10;entryX=0.55;entryY=0.95;entryDx=0;entryDy=0;entryPerimeter=0;" parent="Koh-GuARSo2pHLwbyBPv-1" target="PTWqVlbE14Y938z7VgFS-54" edge="1">
          <mxGeometry width="50" height="50" relative="1" as="geometry">
            <mxPoint x="846" y="920" as="sourcePoint" />
            <mxPoint x="856" y="449.9999999999999" as="targetPoint" />
            <Array as="points">
              <mxPoint x="846" y="920" />
            </Array>
          </mxGeometry>
        </mxCell>
        <mxCell id="PTWqVlbE14Y938z7VgFS-113" value="置管室启动关闭事件" style="edgeLabel;html=1;align=center;verticalAlign=middle;resizable=0;points=[];fontSize=10;" parent="PTWqVlbE14Y938z7VgFS-112" vertex="1" connectable="0">
          <mxGeometry x="-0.8619" y="-1" relative="1" as="geometry">
            <mxPoint x="-7" y="23" as="offset" />
          </mxGeometry>
        </mxCell>
        <mxCell id="PTWqVlbE14Y938z7VgFS-127" value="" style="endArrow=classic;html=1;rounded=0;fontSize=10;entryX=0.01;entryY=0.965;entryDx=0;entryDy=0;entryPerimeter=0;exitX=1.016;exitY=0.6;exitDx=0;exitDy=0;exitPerimeter=0;" parent="Koh-GuARSo2pHLwbyBPv-1" source="PTWqVlbE14Y938z7VgFS-78" target="PTWqVlbE14Y938z7VgFS-129" edge="1">
          <mxGeometry width="50" height="50" relative="1" as="geometry">
            <mxPoint x="900" y="730" as="sourcePoint" />
            <mxPoint x="865" y="618" as="targetPoint" />
          </mxGeometry>
        </mxCell>
        <mxCell id="PTWqVlbE14Y938z7VgFS-138" value="" style="edgeStyle=orthogonalEdgeStyle;rounded=0;orthogonalLoop=1;jettySize=auto;html=1;fontSize=10;entryX=0.483;entryY=0.994;entryDx=0;entryDy=0;entryPerimeter=0;exitX=-0.031;exitY=0.439;exitDx=0;exitDy=0;exitPerimeter=0;" parent="Koh-GuARSo2pHLwbyBPv-1" source="PTWqVlbE14Y938z7VgFS-136" target="PTWqVlbE14Y938z7VgFS-115" edge="1">
          <mxGeometry relative="1" as="geometry">
            <mxPoint x="470.0000000000002" y="1620" as="targetPoint" />
          </mxGeometry>
        </mxCell>
        <mxCell id="PTWqVlbE14Y938z7VgFS-136" value="手术室清理完成沉静15min" style="whiteSpace=wrap;html=1;fillColor=rgb(255, 255, 255);strokeColor=rgb(0, 0, 0);fontColor=rgb(0, 0, 0);" parent="Koh-GuARSo2pHLwbyBPv-1" vertex="1">
          <mxGeometry x="610" y="1590" width="120" height="60" as="geometry" />
        </mxCell>
      </root>
    </mxGraphModel>
  </diagram>
  <diagram id="64c6BMzDT2Dij2l1UJBT" name="Page-3">
    <mxGraphModel dx="1203" dy="725" grid="1" gridSize="10" guides="1" tooltips="1" connect="1" arrows="1" fold="1" page="1" pageScale="1" pageWidth="827" pageHeight="1169" math="0" shadow="0">
      <root>
        <mxCell id="Zp00-ZUphXN0Y4hbfPgg-0" />
        <mxCell id="Zp00-ZUphXN0Y4hbfPgg-1" parent="Zp00-ZUphXN0Y4hbfPgg-0" />
        <mxCell id="Zp00-ZUphXN0Y4hbfPgg-2" value="Pool" style="swimlane;childLayout=stackLayout;resizeParent=1;resizeParentMax=0;startSize=20;horizontal=0;horizontalStack=1;" vertex="1" parent="Zp00-ZUphXN0Y4hbfPgg-1">
          <mxGeometry x="110" y="160" width="1215" height="1200" as="geometry" />
        </mxCell>
        <mxCell id="Zp00-ZUphXN0Y4hbfPgg-3" value="患者" style="swimlane;startSize=20;" vertex="1" parent="Zp00-ZUphXN0Y4hbfPgg-2">
          <mxGeometry x="20" width="120" height="1200" as="geometry" />
        </mxCell>
        <mxCell id="Zp00-ZUphXN0Y4hbfPgg-22" value="" style="ellipse;html=1;shape=startState;fillColor=#000000;strokeColor=#ff0000;" vertex="1" parent="Zp00-ZUphXN0Y4hbfPgg-3">
          <mxGeometry x="40" y="30" width="30" height="30" as="geometry" />
        </mxCell>
        <mxCell id="Zp00-ZUphXN0Y4hbfPgg-23" value="" style="edgeStyle=orthogonalEdgeStyle;html=1;verticalAlign=bottom;endArrow=open;endSize=8;strokeColor=#ff0000;rounded=0;entryX=0.464;entryY=0.026;entryDx=0;entryDy=0;entryPerimeter=0;" edge="1" source="Zp00-ZUphXN0Y4hbfPgg-22" parent="Zp00-ZUphXN0Y4hbfPgg-3" target="Zp00-ZUphXN0Y4hbfPgg-24">
          <mxGeometry relative="1" as="geometry">
            <mxPoint x="55" y="120" as="targetPoint" />
          </mxGeometry>
        </mxCell>
        <mxCell id="Zp00-ZUphXN0Y4hbfPgg-24" value="住院" style="" vertex="1" parent="Zp00-ZUphXN0Y4hbfPgg-3">
          <mxGeometry x="4" y="81" width="110" height="38" as="geometry" />
        </mxCell>
        <mxCell id="c_qRTz-FM8rf7VUyew-X-16" value="术前准备" style="fillColor=rgb(255, 255, 255);strokeColor=rgb(0, 0, 0);fontColor=rgb(0, 0, 0);" vertex="1" parent="Zp00-ZUphXN0Y4hbfPgg-3">
          <mxGeometry x="5" y="250" width="110" height="38" as="geometry" />
        </mxCell>
        <mxCell id="Zp00-ZUphXN0Y4hbfPgg-4" value="主管医生" style="swimlane;startSize=20;" vertex="1" parent="Zp00-ZUphXN0Y4hbfPgg-2">
          <mxGeometry x="140" width="175" height="1200" as="geometry" />
        </mxCell>
        <mxCell id="Zp00-ZUphXN0Y4hbfPgg-33" value="" style="edgeStyle=orthogonalEdgeStyle;rounded=0;orthogonalLoop=1;jettySize=auto;html=1;entryX=0.496;entryY=-0.039;entryDx=0;entryDy=0;entryPerimeter=0;" edge="1" parent="Zp00-ZUphXN0Y4hbfPgg-4" source="Zp00-ZUphXN0Y4hbfPgg-27" target="Zp00-ZUphXN0Y4hbfPgg-32">
          <mxGeometry relative="1" as="geometry" />
        </mxCell>
        <mxCell id="Zp00-ZUphXN0Y4hbfPgg-27" value="计划手术" style="fillColor=rgb(255, 255, 255);strokeColor=rgb(0, 0, 0);fontColor=rgb(0, 0, 0);" vertex="1" parent="Zp00-ZUphXN0Y4hbfPgg-4">
          <mxGeometry x="30" y="81" width="110" height="38" as="geometry" />
        </mxCell>
        <mxCell id="Zp00-ZUphXN0Y4hbfPgg-32" value="开医嘱+手术申请单" style="fillColor=rgb(255, 255, 255);strokeColor=rgb(0, 0, 0);fontColor=rgb(0, 0, 0);" vertex="1" parent="Zp00-ZUphXN0Y4hbfPgg-4">
          <mxGeometry x="30" y="145" width="110" height="38" as="geometry" />
        </mxCell>
        <mxCell id="c_qRTz-FM8rf7VUyew-X-9" value="术前谈话+手术标记" style="fillColor=rgb(255, 255, 255);strokeColor=rgb(0, 0, 0);fontColor=rgb(0, 0, 0);" vertex="1" parent="Zp00-ZUphXN0Y4hbfPgg-4">
          <mxGeometry x="30" y="250" width="110" height="38" as="geometry" />
        </mxCell>
        <mxCell id="c_qRTz-FM8rf7VUyew-X-33" value="&lt;span style=&quot;font-size: 12px&quot;&gt;手术室医生预估&lt;/span&gt;&lt;br style=&quot;padding: 0px ; margin: 0px ; font-size: 12px&quot;&gt;&lt;span style=&quot;font-size: 12px&quot;&gt;上一台手术时间&lt;/span&gt;&lt;br style=&quot;padding: 0px ; margin: 0px ; font-size: 12px&quot;&gt;&lt;span style=&quot;font-size: 12px&quot;&gt;提醒可以送病人&lt;/span&gt;" style="html=1;shape=mxgraph.infographic.ribbonSimple;notch1=0;notch2=20;align=center;verticalAlign=middle;fontSize=14;fontStyle=0;fillColor=#FFFFFF;" vertex="1" parent="Zp00-ZUphXN0Y4hbfPgg-4">
          <mxGeometry x="30" y="350" width="125" height="60" as="geometry" />
        </mxCell>
        <mxCell id="Zp00-ZUphXN0Y4hbfPgg-5" value="麻醉师" style="swimlane;startSize=20;" vertex="1" parent="Zp00-ZUphXN0Y4hbfPgg-2">
          <mxGeometry x="315" width="120" height="1200" as="geometry" />
        </mxCell>
        <mxCell id="c_qRTz-FM8rf7VUyew-X-11" value="麻醉谈话" style="fillColor=rgb(255, 255, 255);strokeColor=rgb(0, 0, 0);fontColor=rgb(0, 0, 0);" vertex="1" parent="Zp00-ZUphXN0Y4hbfPgg-5">
          <mxGeometry x="5" y="250" width="110" height="38" as="geometry" />
        </mxCell>
        <mxCell id="c_qRTz-FM8rf7VUyew-X-76" value="三方核对" style="fillColor=#f8cecc;strokeColor=#b85450;" vertex="1" parent="Zp00-ZUphXN0Y4hbfPgg-5">
          <mxGeometry x="5" y="1020" width="102.5" height="38" as="geometry" />
        </mxCell>
        <mxCell id="Zp00-ZUphXN0Y4hbfPgg-6" value="病房护士" style="swimlane;startSize=20;" vertex="1" parent="Zp00-ZUphXN0Y4hbfPgg-2">
          <mxGeometry x="435" width="140" height="1200" as="geometry" />
        </mxCell>
        <mxCell id="c_qRTz-FM8rf7VUyew-X-12" value="术前宣教" style="fillColor=rgb(255, 255, 255);strokeColor=rgb(0, 0, 0);fontColor=rgb(0, 0, 0);" vertex="1" parent="Zp00-ZUphXN0Y4hbfPgg-6">
          <mxGeometry x="5" y="250" width="110" height="38" as="geometry" />
        </mxCell>
        <mxCell id="c_qRTz-FM8rf7VUyew-X-17" value="" style="shape=line;html=1;strokeWidth=6;strokeColor=#ff0000;" vertex="1" parent="Zp00-ZUphXN0Y4hbfPgg-6">
          <mxGeometry x="-350" y="310" width="440" height="10" as="geometry" />
        </mxCell>
        <mxCell id="c_qRTz-FM8rf7VUyew-X-21" value="" style="edgeStyle=orthogonalEdgeStyle;html=1;verticalAlign=bottom;endArrow=open;endSize=8;strokeColor=#ff0000;rounded=0;exitX=0.506;exitY=1.055;exitDx=0;exitDy=0;exitPerimeter=0;" edge="1" parent="Zp00-ZUphXN0Y4hbfPgg-6" source="c_qRTz-FM8rf7VUyew-X-12">
          <mxGeometry relative="1" as="geometry">
            <mxPoint x="61" y="310" as="targetPoint" />
            <mxPoint x="39.83000000000004" y="359.99800000000005" as="sourcePoint" />
          </mxGeometry>
        </mxCell>
        <mxCell id="c_qRTz-FM8rf7VUyew-X-38" value="确认接送患者" style="shape=mxgraph.uml25.action;html=1;align=center;verticalAlign=middle;absoluteArcSize=1;arcSize=10;dashed=0;spacingLeft=10;flipH=1;" vertex="1" parent="Zp00-ZUphXN0Y4hbfPgg-6">
          <mxGeometry x="15" y="441" width="110" height="40" as="geometry" />
        </mxCell>
        <mxCell id="c_qRTz-FM8rf7VUyew-X-39" value="患者ID" style="text;verticalAlign=middle;align=right;" vertex="1" parent="c_qRTz-FM8rf7VUyew-X-38">
          <mxGeometry x="-60" width="60" height="40" as="geometry" />
        </mxCell>
        <mxCell id="c_qRTz-FM8rf7VUyew-X-45" value="" style="shape=line;html=1;strokeWidth=6;strokeColor=#ff0000;" vertex="1" parent="Zp00-ZUphXN0Y4hbfPgg-6">
          <mxGeometry x="25" y="500" width="95" height="10" as="geometry" />
        </mxCell>
        <mxCell id="c_qRTz-FM8rf7VUyew-X-47" value="" style="edgeStyle=orthogonalEdgeStyle;html=1;verticalAlign=bottom;endArrow=open;endSize=8;strokeColor=#ff0000;rounded=0;entryX=0.508;entryY=0.655;entryDx=0;entryDy=0;entryPerimeter=0;exitX=0.471;exitY=1.015;exitDx=0;exitDy=0;exitPerimeter=0;" edge="1" parent="Zp00-ZUphXN0Y4hbfPgg-6" source="c_qRTz-FM8rf7VUyew-X-38" target="c_qRTz-FM8rf7VUyew-X-45">
          <mxGeometry relative="1" as="geometry">
            <mxPoint x="55" y="530" as="targetPoint" />
            <mxPoint x="75" y="530" as="sourcePoint" />
          </mxGeometry>
        </mxCell>
        <mxCell id="c_qRTz-FM8rf7VUyew-X-48" value="患者手术信息核对" style="" vertex="1" parent="Zp00-ZUphXN0Y4hbfPgg-6">
          <mxGeometry x="25" y="540" width="102.5" height="38" as="geometry" />
        </mxCell>
        <mxCell id="c_qRTz-FM8rf7VUyew-X-46" value="" style="edgeStyle=orthogonalEdgeStyle;html=1;verticalAlign=bottom;endArrow=open;endSize=8;strokeColor=#ff0000;rounded=0;entryX=0.462;entryY=-0.004;entryDx=0;entryDy=0;entryPerimeter=0;" edge="1" source="c_qRTz-FM8rf7VUyew-X-45" parent="Zp00-ZUphXN0Y4hbfPgg-6" target="c_qRTz-FM8rf7VUyew-X-48">
          <mxGeometry relative="1" as="geometry">
            <mxPoint x="240" y="578" as="targetPoint" />
          </mxGeometry>
        </mxCell>
        <mxCell id="Zp00-ZUphXN0Y4hbfPgg-7" value="护工" style="swimlane;startSize=20;" vertex="1" parent="Zp00-ZUphXN0Y4hbfPgg-2">
          <mxGeometry x="575" width="165" height="1200" as="geometry" />
        </mxCell>
        <mxCell id="c_qRTz-FM8rf7VUyew-X-50" value="护工接患者" style="" vertex="1" parent="Zp00-ZUphXN0Y4hbfPgg-7">
          <mxGeometry x="40.5" y="540" width="102.5" height="38" as="geometry" />
        </mxCell>
        <mxCell id="c_qRTz-FM8rf7VUyew-X-51" value="" style="shape=line;html=1;strokeWidth=6;strokeColor=#ff0000;" vertex="1" parent="Zp00-ZUphXN0Y4hbfPgg-7">
          <mxGeometry x="-85" y="610" width="220" height="10" as="geometry" />
        </mxCell>
        <mxCell id="c_qRTz-FM8rf7VUyew-X-53" value="" style="edgeStyle=orthogonalEdgeStyle;html=1;verticalAlign=bottom;endArrow=open;endSize=8;strokeColor=#ff0000;rounded=0;exitX=0.499;exitY=1.018;exitDx=0;exitDy=0;exitPerimeter=0;entryX=0.809;entryY=0.5;entryDx=0;entryDy=0;entryPerimeter=0;" edge="1" parent="Zp00-ZUphXN0Y4hbfPgg-7" source="c_qRTz-FM8rf7VUyew-X-50" target="c_qRTz-FM8rf7VUyew-X-51">
          <mxGeometry relative="1" as="geometry">
            <mxPoint x="93" y="615" as="targetPoint" />
            <mxPoint x="-56.51749999999993" y="588.0000000000002" as="sourcePoint" />
            <Array as="points">
              <mxPoint x="93" y="579" />
            </Array>
          </mxGeometry>
        </mxCell>
        <mxCell id="c_qRTz-FM8rf7VUyew-X-55" value="送患者" style="" vertex="1" parent="Zp00-ZUphXN0Y4hbfPgg-7">
          <mxGeometry x="25" y="660" width="102.5" height="38" as="geometry" />
        </mxCell>
        <mxCell id="c_qRTz-FM8rf7VUyew-X-54" value="" style="edgeStyle=orthogonalEdgeStyle;html=1;verticalAlign=bottom;endArrow=open;endSize=8;strokeColor=#ff0000;rounded=0;exitX=0.519;exitY=0.638;exitDx=0;exitDy=0;exitPerimeter=0;" edge="1" parent="Zp00-ZUphXN0Y4hbfPgg-7" source="c_qRTz-FM8rf7VUyew-X-51">
          <mxGeometry relative="1" as="geometry">
            <mxPoint x="76" y="660" as="targetPoint" />
            <mxPoint x="-56.51749999999993" y="588.0000000000002" as="sourcePoint" />
            <Array as="points">
              <mxPoint x="76" y="616" />
              <mxPoint x="76" y="660" />
            </Array>
          </mxGeometry>
        </mxCell>
        <mxCell id="c_qRTz-FM8rf7VUyew-X-72" value="送患者" style="fillColor=rgb(255, 255, 255);strokeColor=rgb(0, 0, 0);fontColor=rgb(0, 0, 0);" vertex="1" parent="Zp00-ZUphXN0Y4hbfPgg-7">
          <mxGeometry x="31.25" y="900" width="102.5" height="38" as="geometry" />
        </mxCell>
        <mxCell id="c_qRTz-FM8rf7VUyew-X-73" value="" style="shape=line;html=1;strokeWidth=6;strokeColor=#ff0000;" vertex="1" parent="Zp00-ZUphXN0Y4hbfPgg-7">
          <mxGeometry x="31.25" y="958.4000000000001" width="95" height="10" as="geometry" />
        </mxCell>
        <mxCell id="c_qRTz-FM8rf7VUyew-X-74" value="" style="edgeStyle=orthogonalEdgeStyle;html=1;verticalAlign=bottom;endArrow=open;endSize=8;strokeColor=#ff0000;rounded=0;entryX=0.508;entryY=0.655;entryDx=0;entryDy=0;entryPerimeter=0;exitX=0.471;exitY=1.053;exitDx=0;exitDy=0;exitPerimeter=0;" edge="1" parent="Zp00-ZUphXN0Y4hbfPgg-7" target="c_qRTz-FM8rf7VUyew-X-73" source="c_qRTz-FM8rf7VUyew-X-72">
          <mxGeometry relative="1" as="geometry">
            <mxPoint x="-483.75" y="828.4" as="targetPoint" />
            <mxPoint x="79.43999999999983" y="940" as="sourcePoint" />
          </mxGeometry>
        </mxCell>
        <mxCell id="Zp00-ZUphXN0Y4hbfPgg-8" value="接待室护士" style="swimlane;startSize=20;" vertex="1" parent="Zp00-ZUphXN0Y4hbfPgg-2">
          <mxGeometry x="740" width="145" height="1200" as="geometry" />
        </mxCell>
        <mxCell id="c_qRTz-FM8rf7VUyew-X-56" value="核对患者信息" style="fillColor=rgb(255, 255, 255);strokeColor=rgb(0, 0, 0);fontColor=rgb(0, 0, 0);" vertex="1" parent="Zp00-ZUphXN0Y4hbfPgg-8">
          <mxGeometry x="21.25" y="660" width="102.5" height="38" as="geometry" />
        </mxCell>
        <mxCell id="c_qRTz-FM8rf7VUyew-X-58" value="动脉穿刺" style="rhombus;whiteSpace=wrap;html=1;fillColor=#ffffc0;strokeColor=#ff0000;" vertex="1" parent="Zp00-ZUphXN0Y4hbfPgg-8">
          <mxGeometry x="30" y="788.66" width="80" height="40" as="geometry" />
        </mxCell>
        <mxCell id="c_qRTz-FM8rf7VUyew-X-61" value="" style="edgeStyle=orthogonalEdgeStyle;html=1;verticalAlign=bottom;endArrow=open;endSize=8;strokeColor=#ff0000;rounded=0;exitX=0.479;exitY=1.125;exitDx=0;exitDy=0;exitPerimeter=0;" edge="1" parent="Zp00-ZUphXN0Y4hbfPgg-8" source="c_qRTz-FM8rf7VUyew-X-66" target="c_qRTz-FM8rf7VUyew-X-58">
          <mxGeometry relative="1" as="geometry">
            <mxPoint x="70.66000000000008" y="817.9799999999999" as="targetPoint" />
            <mxPoint x="70.24500000000012" y="770.0019999999998" as="sourcePoint" />
            <Array as="points" />
          </mxGeometry>
        </mxCell>
        <mxCell id="c_qRTz-FM8rf7VUyew-X-66" value="手术管路接通" style="fillColor=rgb(255, 255, 255);strokeColor=rgb(0, 0, 0);fontColor=rgb(0, 0, 0);" vertex="1" parent="Zp00-ZUphXN0Y4hbfPgg-8">
          <mxGeometry x="21.25" y="723" width="102.5" height="38" as="geometry" />
        </mxCell>
        <mxCell id="c_qRTz-FM8rf7VUyew-X-67" value="" style="edgeStyle=orthogonalEdgeStyle;rounded=0;orthogonalLoop=1;jettySize=auto;html=1;entryX=0.498;entryY=0.022;entryDx=0;entryDy=0;entryPerimeter=0;exitX=0.492;exitY=1;exitDx=0;exitDy=0;exitPerimeter=0;" edge="1" parent="Zp00-ZUphXN0Y4hbfPgg-8" source="c_qRTz-FM8rf7VUyew-X-56" target="c_qRTz-FM8rf7VUyew-X-66">
          <mxGeometry relative="1" as="geometry">
            <mxPoint x="100" y="710" as="sourcePoint" />
            <mxPoint x="28.789999999999964" y="689" as="targetPoint" />
          </mxGeometry>
        </mxCell>
        <mxCell id="c_qRTz-FM8rf7VUyew-X-59" value="yes" style="edgeStyle=orthogonalEdgeStyle;html=1;align=left;verticalAlign=bottom;endArrow=open;endSize=8;strokeColor=#ff0000;rounded=0;entryX=0.01;entryY=0.538;entryDx=0;entryDy=0;entryPerimeter=0;" edge="1" source="c_qRTz-FM8rf7VUyew-X-58" parent="Zp00-ZUphXN0Y4hbfPgg-2" target="c_qRTz-FM8rf7VUyew-X-62">
          <mxGeometry x="-1" relative="1" as="geometry">
            <mxPoint x="950" y="808.66" as="targetPoint" />
          </mxGeometry>
        </mxCell>
        <mxCell id="c_qRTz-FM8rf7VUyew-X-64" value="" style="edgeStyle=orthogonalEdgeStyle;html=1;align=left;verticalAlign=bottom;endArrow=open;endSize=8;strokeColor=#ff0000;rounded=0;entryX=0.437;entryY=0.563;entryDx=0;entryDy=0;entryPerimeter=0;exitX=0.499;exitY=1.023;exitDx=0;exitDy=0;exitPerimeter=0;" edge="1" parent="Zp00-ZUphXN0Y4hbfPgg-2" source="c_qRTz-FM8rf7VUyew-X-62" target="c_qRTz-FM8rf7VUyew-X-69">
          <mxGeometry x="-1" relative="1" as="geometry">
            <mxPoint x="863.6475" y="901.7759999999998" as="targetPoint" />
            <mxPoint x="950" y="878.66" as="sourcePoint" />
          </mxGeometry>
        </mxCell>
        <mxCell id="Zp00-ZUphXN0Y4hbfPgg-21" value="诱导室" style="swimlane;startSize=20;fillColor=rgb(255, 255, 255);strokeColor=rgb(0, 0, 0);fontColor=rgb(0, 0, 0);" vertex="1" parent="Zp00-ZUphXN0Y4hbfPgg-2">
          <mxGeometry x="885" width="120" height="1200" as="geometry" />
        </mxCell>
        <mxCell id="c_qRTz-FM8rf7VUyew-X-62" value="排队-置管" style="fillColor=rgb(255, 255, 255);strokeColor=rgb(0, 0, 0);fontColor=rgb(0, 0, 0);" vertex="1" parent="Zp00-ZUphXN0Y4hbfPgg-21">
          <mxGeometry x="8" y="788.66" width="102.5" height="38" as="geometry" />
        </mxCell>
        <mxCell id="Zp00-ZUphXN0Y4hbfPgg-20" value="巡回护士" style="swimlane;startSize=20;" vertex="1" parent="Zp00-ZUphXN0Y4hbfPgg-2">
          <mxGeometry x="1005" width="210" height="1200" as="geometry" />
        </mxCell>
        <mxCell id="c_qRTz-FM8rf7VUyew-X-37" value="" style="edgeStyle=orthogonalEdgeStyle;rounded=0;orthogonalLoop=1;jettySize=auto;html=1;entryX=0.503;entryY=0.042;entryDx=0;entryDy=0;entryPerimeter=0;exitX=0;exitY=0;exitDx=70;exitDy=40;exitPerimeter=0;" edge="1" parent="Zp00-ZUphXN0Y4hbfPgg-20" source="c_qRTz-FM8rf7VUyew-X-34" target="c_qRTz-FM8rf7VUyew-X-35">
          <mxGeometry relative="1" as="geometry" />
        </mxCell>
        <mxCell id="c_qRTz-FM8rf7VUyew-X-34" value="接收信息" style="html=1;shape=mxgraph.infographic.ribbonSimple;notch1=20;notch2=0;align=center;verticalAlign=middle;fontSize=14;fontStyle=0;fillColor=#FFFFFF;flipH=0;spacingRight=0;spacingLeft=14;" vertex="1" parent="Zp00-ZUphXN0Y4hbfPgg-20">
          <mxGeometry x="15" y="360" width="140" height="40" as="geometry" />
        </mxCell>
        <mxCell id="c_qRTz-FM8rf7VUyew-X-35" value="电话联系病区护士" style="shape=mxgraph.uml25.action;html=1;align=center;verticalAlign=middle;absoluteArcSize=1;arcSize=10;dashed=0;spacingRight=10;" vertex="1" parent="Zp00-ZUphXN0Y4hbfPgg-20">
          <mxGeometry x="30" y="440" width="110" height="40" as="geometry" />
        </mxCell>
        <mxCell id="c_qRTz-FM8rf7VUyew-X-36" value="手术患者ID" style="text;verticalAlign=middle;align=left;" vertex="1" parent="c_qRTz-FM8rf7VUyew-X-35">
          <mxGeometry x="110" width="60" height="30" as="geometry" />
        </mxCell>
        <mxCell id="c_qRTz-FM8rf7VUyew-X-68" value="手术间静置完成" style="fillColor=rgb(255, 255, 255);strokeColor=rgb(0, 0, 0);fontColor=rgb(0, 0, 0);" vertex="1" parent="Zp00-ZUphXN0Y4hbfPgg-20">
          <mxGeometry x="45" y="789.9999999999999" width="102.5" height="38" as="geometry" />
        </mxCell>
        <mxCell id="c_qRTz-FM8rf7VUyew-X-69" value="" style="shape=line;html=1;strokeWidth=6;strokeColor=#ff0000;" vertex="1" parent="Zp00-ZUphXN0Y4hbfPgg-20">
          <mxGeometry x="-222.5" y="860" width="370" height="10" as="geometry" />
        </mxCell>
        <mxCell id="c_qRTz-FM8rf7VUyew-X-70" value="" style="edgeStyle=orthogonalEdgeStyle;html=1;align=left;verticalAlign=bottom;endArrow=open;endSize=8;strokeColor=#ff0000;rounded=0;" edge="1" parent="Zp00-ZUphXN0Y4hbfPgg-20">
          <mxGeometry x="-1" relative="1" as="geometry">
            <mxPoint x="95" y="864" as="targetPoint" />
            <mxPoint x="95" y="828" as="sourcePoint" />
            <Array as="points">
              <mxPoint x="95" y="828" />
              <mxPoint x="95" y="864" />
            </Array>
          </mxGeometry>
        </mxCell>
        <mxCell id="c_qRTz-FM8rf7VUyew-X-77" value="三方核对" style="fillColor=#f8cecc;strokeColor=#b85450;" vertex="1" parent="Zp00-ZUphXN0Y4hbfPgg-20">
          <mxGeometry x="33.75" y="1020" width="102.5" height="38" as="geometry" />
        </mxCell>
        <mxCell id="Zp00-ZUphXN0Y4hbfPgg-28" value="" style="edgeStyle=orthogonalEdgeStyle;rounded=0;orthogonalLoop=1;jettySize=auto;html=1;exitX=1;exitY=0.474;exitDx=0;exitDy=0;exitPerimeter=0;" edge="1" parent="Zp00-ZUphXN0Y4hbfPgg-2" source="Zp00-ZUphXN0Y4hbfPgg-24">
          <mxGeometry relative="1" as="geometry">
            <mxPoint x="160" y="140" as="sourcePoint" />
            <mxPoint x="170" y="99" as="targetPoint" />
          </mxGeometry>
        </mxCell>
        <mxCell id="c_qRTz-FM8rf7VUyew-X-19" value="" style="edgeStyle=orthogonalEdgeStyle;html=1;verticalAlign=bottom;endArrow=open;endSize=8;strokeColor=#ff0000;rounded=0;exitX=0.482;exitY=1.067;exitDx=0;exitDy=0;exitPerimeter=0;entryX=0.313;entryY=0.622;entryDx=0;entryDy=0;entryPerimeter=0;" edge="1" parent="Zp00-ZUphXN0Y4hbfPgg-2" source="c_qRTz-FM8rf7VUyew-X-9" target="c_qRTz-FM8rf7VUyew-X-17">
          <mxGeometry relative="1" as="geometry">
            <mxPoint x="232.47000000000014" y="258.55600000000004" as="targetPoint" />
            <mxPoint x="232" y="219" as="sourcePoint" />
          </mxGeometry>
        </mxCell>
        <mxCell id="c_qRTz-FM8rf7VUyew-X-20" value="" style="edgeStyle=orthogonalEdgeStyle;html=1;verticalAlign=bottom;endArrow=open;endSize=8;strokeColor=#ff0000;rounded=0;exitX=0.497;exitY=1.016;exitDx=0;exitDy=0;exitPerimeter=0;entryX=0.659;entryY=0.533;entryDx=0;entryDy=0;entryPerimeter=0;" edge="1" parent="Zp00-ZUphXN0Y4hbfPgg-2" source="c_qRTz-FM8rf7VUyew-X-11" target="c_qRTz-FM8rf7VUyew-X-17">
          <mxGeometry relative="1" as="geometry">
            <mxPoint x="393.49" y="384.49" as="targetPoint" />
            <mxPoint x="326.5099999999999" y="360.03600000000006" as="sourcePoint" />
          </mxGeometry>
        </mxCell>
        <mxCell id="c_qRTz-FM8rf7VUyew-X-22" value="" style="edgeStyle=orthogonalEdgeStyle;html=1;verticalAlign=bottom;endArrow=open;endSize=8;strokeColor=#ff0000;rounded=0;exitX=0.453;exitY=1.055;exitDx=0;exitDy=0;exitPerimeter=0;entryX=0.25;entryY=0.5;entryDx=0;entryDy=0;entryPerimeter=0;" edge="1" parent="Zp00-ZUphXN0Y4hbfPgg-2" source="c_qRTz-FM8rf7VUyew-X-16" target="c_qRTz-FM8rf7VUyew-X-17">
          <mxGeometry relative="1" as="geometry">
            <mxPoint x="69.67000000000002" y="409.90999999999997" as="targetPoint" />
            <mxPoint x="80.3300000000001" y="340" as="sourcePoint" />
          </mxGeometry>
        </mxCell>
        <mxCell id="c_qRTz-FM8rf7VUyew-X-18" value="" style="edgeStyle=orthogonalEdgeStyle;html=1;verticalAlign=bottom;endArrow=open;endSize=8;strokeColor=#ff0000;rounded=0;entryX=0.469;entryY=-0.011;entryDx=0;entryDy=0;entryPerimeter=0;exitX=0.326;exitY=0.667;exitDx=0;exitDy=0;exitPerimeter=0;" edge="1" source="c_qRTz-FM8rf7VUyew-X-17" parent="Zp00-ZUphXN0Y4hbfPgg-2" target="c_qRTz-FM8rf7VUyew-X-33">
          <mxGeometry relative="1" as="geometry">
            <mxPoint x="225.91000000000008" y="352.03999999999996" as="targetPoint" />
            <Array as="points" />
          </mxGeometry>
        </mxCell>
        <mxCell id="c_qRTz-FM8rf7VUyew-X-26" value="" style="edgeStyle=orthogonalEdgeStyle;rounded=0;orthogonalLoop=1;jettySize=auto;html=1;exitX=1;exitY=0.5;exitDx=0;exitDy=0;exitPerimeter=0;entryX=0.115;entryY=0.49;entryDx=0;entryDy=0;entryPerimeter=0;" edge="1" parent="Zp00-ZUphXN0Y4hbfPgg-2" source="c_qRTz-FM8rf7VUyew-X-33" target="c_qRTz-FM8rf7VUyew-X-34">
          <mxGeometry relative="1" as="geometry">
            <mxPoint x="290" y="382.3399999999999" as="sourcePoint" />
            <mxPoint x="910" y="382" as="targetPoint" />
            <Array as="points">
              <mxPoint x="951" y="380" />
            </Array>
          </mxGeometry>
        </mxCell>
        <mxCell id="c_qRTz-FM8rf7VUyew-X-42" value="" style="edgeStyle=orthogonalEdgeStyle;rounded=0;orthogonalLoop=1;jettySize=auto;html=1;entryX=-0.023;entryY=0.472;entryDx=0;entryDy=0;entryPerimeter=0;exitX=0.013;exitY=0.5;exitDx=0;exitDy=0;exitPerimeter=0;" edge="1" parent="Zp00-ZUphXN0Y4hbfPgg-2" source="c_qRTz-FM8rf7VUyew-X-35" target="c_qRTz-FM8rf7VUyew-X-38">
          <mxGeometry relative="1" as="geometry">
            <mxPoint x="960" y="459" as="sourcePoint" />
          </mxGeometry>
        </mxCell>
        <mxCell id="c_qRTz-FM8rf7VUyew-X-49" value="" style="edgeStyle=orthogonalEdgeStyle;html=1;verticalAlign=bottom;endArrow=open;endSize=8;strokeColor=#ff0000;rounded=0;exitX=0.75;exitY=0.5;exitDx=0;exitDy=0;exitPerimeter=0;entryX=0.479;entryY=0.015;entryDx=0;entryDy=0;entryPerimeter=0;" edge="1" parent="Zp00-ZUphXN0Y4hbfPgg-2" source="c_qRTz-FM8rf7VUyew-X-45" target="c_qRTz-FM8rf7VUyew-X-50">
          <mxGeometry relative="1" as="geometry">
            <mxPoint x="670" y="570" as="targetPoint" />
            <mxPoint x="517.5" y="515" as="sourcePoint" />
            <Array as="points">
              <mxPoint x="531" y="520" />
              <mxPoint x="664" y="520" />
            </Array>
          </mxGeometry>
        </mxCell>
        <mxCell id="c_qRTz-FM8rf7VUyew-X-52" value="" style="edgeStyle=orthogonalEdgeStyle;html=1;verticalAlign=bottom;endArrow=open;endSize=8;strokeColor=#ff0000;rounded=0;exitX=0.473;exitY=1;exitDx=0;exitDy=0;exitPerimeter=0;" edge="1" parent="Zp00-ZUphXN0Y4hbfPgg-2" source="c_qRTz-FM8rf7VUyew-X-48">
          <mxGeometry relative="1" as="geometry">
            <mxPoint x="509" y="613" as="targetPoint" />
            <mxPoint x="599.99" y="570" as="sourcePoint" />
            <Array as="points">
              <mxPoint x="509" y="594" />
              <mxPoint x="509" y="613" />
            </Array>
          </mxGeometry>
        </mxCell>
        <mxCell id="c_qRTz-FM8rf7VUyew-X-57" value="" style="edgeStyle=orthogonalEdgeStyle;rounded=0;orthogonalLoop=1;jettySize=auto;html=1;exitX=0.976;exitY=0.5;exitDx=0;exitDy=0;exitPerimeter=0;entryX=-0.024;entryY=0.5;entryDx=0;entryDy=0;entryPerimeter=0;" edge="1" parent="Zp00-ZUphXN0Y4hbfPgg-2" source="c_qRTz-FM8rf7VUyew-X-55" target="c_qRTz-FM8rf7VUyew-X-56">
          <mxGeometry relative="1" as="geometry">
            <mxPoint x="710" y="679" as="sourcePoint" />
            <mxPoint x="780" y="660" as="targetPoint" />
          </mxGeometry>
        </mxCell>
        <mxCell id="c_qRTz-FM8rf7VUyew-X-60" value="no" style="edgeStyle=orthogonalEdgeStyle;html=1;align=left;verticalAlign=top;endArrow=open;endSize=8;strokeColor=#ff0000;rounded=0;" edge="1" source="c_qRTz-FM8rf7VUyew-X-58" parent="Zp00-ZUphXN0Y4hbfPgg-2">
          <mxGeometry x="-1" relative="1" as="geometry">
            <mxPoint x="809" y="864" as="targetPoint" />
          </mxGeometry>
        </mxCell>
        <mxCell id="c_qRTz-FM8rf7VUyew-X-71" value="" style="edgeStyle=orthogonalEdgeStyle;html=1;align=left;verticalAlign=bottom;endArrow=open;endSize=8;strokeColor=#ff0000;rounded=0;entryX=0.465;entryY=-0.054;entryDx=0;entryDy=0;entryPerimeter=0;" edge="1" parent="Zp00-ZUphXN0Y4hbfPgg-2" source="c_qRTz-FM8rf7VUyew-X-69" target="c_qRTz-FM8rf7VUyew-X-72">
          <mxGeometry x="-1" relative="1" as="geometry">
            <mxPoint x="840" y="940" as="targetPoint" />
            <mxPoint x="940.0775000000001" y="900.0439999999999" as="sourcePoint" />
            <Array as="points">
              <mxPoint x="967" y="880" />
              <mxPoint x="654" y="880" />
            </Array>
          </mxGeometry>
        </mxCell>
        <mxCell id="c_qRTz-FM8rf7VUyew-X-75" value="" style="edgeStyle=orthogonalEdgeStyle;html=1;align=left;verticalAlign=top;endArrow=open;endSize=8;strokeColor=#ff0000;rounded=0;exitX=0.25;exitY=0.5;exitDx=0;exitDy=0;exitPerimeter=0;entryX=0.507;entryY=-0.053;entryDx=0;entryDy=0;entryPerimeter=0;" edge="1" parent="Zp00-ZUphXN0Y4hbfPgg-2" source="c_qRTz-FM8rf7VUyew-X-73" target="c_qRTz-FM8rf7VUyew-X-76">
          <mxGeometry x="-1" relative="1" as="geometry">
            <mxPoint x="550" y="1060" as="targetPoint" />
            <mxPoint x="819.9655172413793" y="838.6427586206896" as="sourcePoint" />
            <Array as="points">
              <mxPoint x="630" y="990" />
              <mxPoint x="372" y="990" />
            </Array>
          </mxGeometry>
        </mxCell>
        <mxCell id="c_qRTz-FM8rf7VUyew-X-78" value="" style="edgeStyle=orthogonalEdgeStyle;html=1;align=left;verticalAlign=top;endArrow=open;endSize=8;strokeColor=#ff0000;rounded=0;exitX=0.75;exitY=0.5;exitDx=0;exitDy=0;exitPerimeter=0;entryX=0.534;entryY=-0.068;entryDx=0;entryDy=0;entryPerimeter=0;" edge="1" parent="Zp00-ZUphXN0Y4hbfPgg-2" source="c_qRTz-FM8rf7VUyew-X-73" target="c_qRTz-FM8rf7VUyew-X-77">
          <mxGeometry x="-1" relative="1" as="geometry">
            <mxPoint x="560" y="1070" as="targetPoint" />
            <mxPoint x="640" y="973.4000000000001" as="sourcePoint" />
            <Array as="points">
              <mxPoint x="678" y="990" />
              <mxPoint x="1094" y="990" />
            </Array>
          </mxGeometry>
        </mxCell>
        <mxCell id="Zp00-ZUphXN0Y4hbfPgg-26" value="准备手术治疗" style="" vertex="1" parent="Zp00-ZUphXN0Y4hbfPgg-1">
          <mxGeometry x="270" y="80" width="110" height="38" as="geometry" />
        </mxCell>
        <mxCell id="c_qRTz-FM8rf7VUyew-X-0" value="" style="shape=line;html=1;strokeWidth=6;strokeColor=#ff0000;" vertex="1" parent="Zp00-ZUphXN0Y4hbfPgg-1">
          <mxGeometry x="274" y="364" width="96" height="10" as="geometry" />
        </mxCell>
        <mxCell id="c_qRTz-FM8rf7VUyew-X-2" value="" style="edgeStyle=orthogonalEdgeStyle;html=1;verticalAlign=bottom;endArrow=open;endSize=8;strokeColor=#ff0000;rounded=0;exitX=0.406;exitY=1.034;exitDx=0;exitDy=0;exitPerimeter=0;entryX=0.526;entryY=0.455;entryDx=0;entryDy=0;entryPerimeter=0;" edge="1" parent="Zp00-ZUphXN0Y4hbfPgg-1" source="Zp00-ZUphXN0Y4hbfPgg-32" target="c_qRTz-FM8rf7VUyew-X-0">
          <mxGeometry relative="1" as="geometry">
            <mxPoint x="325" y="380" as="targetPoint" />
            <mxPoint x="380" y="395" as="sourcePoint" />
          </mxGeometry>
        </mxCell>
        <mxCell id="c_qRTz-FM8rf7VUyew-X-1" value="" style="edgeStyle=orthogonalEdgeStyle;html=1;verticalAlign=bottom;endArrow=open;endSize=8;strokeColor=#ff0000;rounded=0;entryX=0.477;entryY=-0.038;entryDx=0;entryDy=0;entryPerimeter=0;exitX=0.609;exitY=0.565;exitDx=0;exitDy=0;exitPerimeter=0;" edge="1" source="c_qRTz-FM8rf7VUyew-X-0" parent="Zp00-ZUphXN0Y4hbfPgg-1" target="c_qRTz-FM8rf7VUyew-X-9">
          <mxGeometry relative="1" as="geometry">
            <mxPoint x="370" y="460" as="targetPoint" />
          </mxGeometry>
        </mxCell>
        <mxCell id="c_qRTz-FM8rf7VUyew-X-10" value="" style="edgeStyle=orthogonalEdgeStyle;html=1;verticalAlign=bottom;endArrow=open;endSize=8;strokeColor=#ff0000;rounded=0;exitX=0.75;exitY=0.5;exitDx=0;exitDy=0;exitPerimeter=0;" edge="1" parent="Zp00-ZUphXN0Y4hbfPgg-1" source="c_qRTz-FM8rf7VUyew-X-0">
          <mxGeometry relative="1" as="geometry">
            <mxPoint x="460" y="410" as="targetPoint" />
            <mxPoint x="332" y="378.9999999999999" as="sourcePoint" />
            <Array as="points">
              <mxPoint x="346" y="390" />
              <mxPoint x="460" y="390" />
            </Array>
          </mxGeometry>
        </mxCell>
        <mxCell id="c_qRTz-FM8rf7VUyew-X-13" value="" style="edgeStyle=orthogonalEdgeStyle;html=1;verticalAlign=bottom;endArrow=open;endSize=8;strokeColor=#ff0000;rounded=0;exitX=0.75;exitY=0.5;exitDx=0;exitDy=0;exitPerimeter=0;entryX=0.497;entryY=-0.038;entryDx=0;entryDy=0;entryPerimeter=0;" edge="1" parent="Zp00-ZUphXN0Y4hbfPgg-1" source="c_qRTz-FM8rf7VUyew-X-0" target="c_qRTz-FM8rf7VUyew-X-12">
          <mxGeometry relative="1" as="geometry">
            <mxPoint x="470" y="420" as="targetPoint" />
            <mxPoint x="356" y="378.9999999999999" as="sourcePoint" />
            <Array as="points">
              <mxPoint x="345" y="369" />
              <mxPoint x="345" y="390" />
              <mxPoint x="580" y="390" />
            </Array>
          </mxGeometry>
        </mxCell>
        <mxCell id="c_qRTz-FM8rf7VUyew-X-15" value="" style="edgeStyle=orthogonalEdgeStyle;html=1;verticalAlign=bottom;endArrow=open;endSize=8;strokeColor=#ff0000;rounded=0;exitX=0.25;exitY=0.5;exitDx=0;exitDy=0;exitPerimeter=0;entryX=0.457;entryY=0.028;entryDx=0;entryDy=0;entryPerimeter=0;" edge="1" parent="Zp00-ZUphXN0Y4hbfPgg-1" source="c_qRTz-FM8rf7VUyew-X-0" target="c_qRTz-FM8rf7VUyew-X-16">
          <mxGeometry relative="1" as="geometry">
            <mxPoint x="200" y="410" as="targetPoint" />
            <mxPoint x="332" y="379" as="sourcePoint" />
            <Array as="points">
              <mxPoint x="298" y="390" />
              <mxPoint x="175" y="390" />
            </Array>
          </mxGeometry>
        </mxCell>
        <mxCell id="c_qRTz-FM8rf7VUyew-X-79" value="三方核对" style="fillColor=#f8cecc;strokeColor=#b85450;" vertex="1" parent="Zp00-ZUphXN0Y4hbfPgg-1">
          <mxGeometry x="291" y="1183" width="102.5" height="38" as="geometry" />
        </mxCell>
        <mxCell id="c_qRTz-FM8rf7VUyew-X-80" value="" style="edgeStyle=orthogonalEdgeStyle;html=1;align=left;verticalAlign=top;endArrow=open;endSize=8;strokeColor=#ff0000;rounded=0;exitX=0.25;exitY=0.5;exitDx=0;exitDy=0;exitPerimeter=0;entryX=0.487;entryY=0.024;entryDx=0;entryDy=0;entryPerimeter=0;" edge="1" parent="Zp00-ZUphXN0Y4hbfPgg-1" source="c_qRTz-FM8rf7VUyew-X-73" target="c_qRTz-FM8rf7VUyew-X-79">
          <mxGeometry x="-1" relative="1" as="geometry">
            <mxPoint x="491.9675" y="1187.986" as="targetPoint" />
            <mxPoint x="750" y="1133.3999999999999" as="sourcePoint" />
            <Array as="points">
              <mxPoint x="740" y="1150" />
              <mxPoint x="341" y="1150" />
            </Array>
          </mxGeometry>
        </mxCell>
      </root>
    </mxGraphModel>
  </diagram>
</mxfile>
